<svg id="Layer_1" data-name="Layer 1" xmlns="http://www.w3.org/2000/svg" xmlns:xlink="http://www.w3.org/1999/xlink" viewBox="0 0 1175.57 693.1"><defs><style>.cls-1,.cls-10,.cls-100,.cls-101,.cls-102,.cls-103,.cls-104,.cls-105,.cls-106,.cls-107,.cls-108,.cls-109,.cls-11,.cls-110,.cls-12,.cls-13,.cls-14,.cls-15,.cls-16,.cls-17,.cls-18,.cls-19,.cls-2,.cls-20,.cls-21,.cls-22,.cls-23,.cls-24,.cls-25,.cls-26,.cls-27,.cls-28,.cls-29,.cls-3,.cls-30,.cls-31,.cls-32,.cls-33,.cls-34,.cls-35,.cls-36,.cls-37,.cls-38,.cls-39,.cls-4,.cls-40,.cls-41,.cls-42,.cls-43,.cls-44,.cls-45,.cls-46,.cls-47,.cls-48,.cls-49,.cls-5,.cls-50,.cls-51,.cls-52,.cls-53,.cls-54,.cls-55,.cls-56,.cls-57,.cls-58,.cls-59,.cls-6,.cls-60,.cls-61,.cls-62,.cls-63,.cls-64,.cls-65,.cls-66,.cls-67,.cls-68,.cls-69,.cls-7,.cls-70,.cls-71,.cls-72,.cls-73,.cls-74,.cls-75,.cls-76,.cls-77,.cls-78,.cls-79,.cls-8,.cls-80,.cls-81,.cls-82,.cls-83,.cls-84,.cls-85,.cls-86,.cls-87,.cls-88,.cls-89,.cls-9,.cls-90,.cls-91,.cls-92,.cls-93,.cls-94,.cls-95,.cls-96,.cls-97,.cls-98,.cls-99{fill-rule:evenodd}.cls-1{fill:url(#linear-gradient)}.cls-2{fill:url(#linear-gradient-2)}.cls-3{fill:url(#linear-gradient-3)}.cls-4{fill:url(#linear-gradient-4)}.cls-5{fill:url(#linear-gradient-5)}.cls-6{fill:url(#linear-gradient-6)}.cls-7{fill:url(#linear-gradient-7)}.cls-8{fill:url(#linear-gradient-8)}.cls-9{fill:url(#linear-gradient-9)}.cls-10{fill:url(#linear-gradient-10)}.cls-11{fill:url(#linear-gradient-11)}.cls-12{fill:url(#linear-gradient-12)}.cls-13{fill:url(#linear-gradient-13)}.cls-14{fill:url(#linear-gradient-14)}.cls-15{fill:url(#linear-gradient-15)}.cls-16{fill:url(#linear-gradient-16)}.cls-17{fill:url(#linear-gradient-17)}.cls-18{fill:url(#linear-gradient-18)}.cls-19{fill:url(#linear-gradient-19)}.cls-20{fill:url(#linear-gradient-20)}.cls-21{fill:url(#linear-gradient-21)}.cls-22{fill:url(#linear-gradient-22)}.cls-23{fill:url(#linear-gradient-23)}.cls-24{fill:url(#linear-gradient-24)}.cls-25{fill:url(#linear-gradient-25)}.cls-26{fill:url(#linear-gradient-26)}.cls-27{fill:url(#linear-gradient-27)}.cls-28{fill:url(#linear-gradient-28)}.cls-29{fill:url(#linear-gradient-29)}.cls-30{fill:url(#linear-gradient-30)}.cls-31{fill:url(#linear-gradient-31)}.cls-32{fill:url(#linear-gradient-32)}.cls-33{fill:url(#linear-gradient-33)}.cls-34{fill:url(#linear-gradient-34)}.cls-35{fill:url(#linear-gradient-35)}.cls-36{fill:url(#linear-gradient-36)}.cls-37{fill:url(#linear-gradient-37)}.cls-38{fill:url(#linear-gradient-38)}.cls-39{fill:url(#linear-gradient-39)}.cls-40{fill:url(#linear-gradient-40)}.cls-41{fill:url(#linear-gradient-41)}.cls-42{fill:url(#linear-gradient-42)}.cls-43{fill:url(#linear-gradient-43)}.cls-44{fill:url(#linear-gradient-44)}.cls-45{fill:url(#linear-gradient-45)}.cls-46{fill:url(#linear-gradient-46)}.cls-47{fill:url(#linear-gradient-47)}.cls-48{fill:url(#linear-gradient-48)}.cls-49{fill:url(#linear-gradient-49)}.cls-50{fill:url(#linear-gradient-50)}.cls-51{fill:url(#linear-gradient-51)}.cls-52{fill:url(#linear-gradient-52)}.cls-53{fill:url(#linear-gradient-53)}.cls-54{fill:url(#linear-gradient-54)}.cls-55{fill:url(#linear-gradient-55)}.cls-56{fill:url(#linear-gradient-56)}.cls-57{fill:url(#linear-gradient-57)}.cls-58{fill:url(#linear-gradient-58)}.cls-59{fill:url(#linear-gradient-59)}.cls-60{fill:url(#linear-gradient-60)}.cls-61{fill:url(#linear-gradient-61)}.cls-62{fill:url(#linear-gradient-62)}.cls-63{fill:url(#linear-gradient-63)}.cls-64{fill:url(#linear-gradient-64)}.cls-65{fill:url(#linear-gradient-65)}.cls-66{fill:url(#linear-gradient-66)}.cls-67{fill:url(#linear-gradient-67)}.cls-68{fill:url(#linear-gradient-68)}.cls-69{fill:url(#linear-gradient-69)}.cls-70{fill:url(#linear-gradient-70)}.cls-71{fill:url(#linear-gradient-71)}.cls-72{fill:url(#linear-gradient-72)}.cls-73{fill:url(#linear-gradient-73)}.cls-74{fill:url(#linear-gradient-74)}.cls-75{fill:url(#linear-gradient-75)}.cls-76{fill:url(#linear-gradient-76)}.cls-77{fill:url(#linear-gradient-77)}.cls-78{fill:url(#linear-gradient-78)}.cls-79{fill:url(#linear-gradient-79)}.cls-80{fill:url(#linear-gradient-80)}.cls-81{fill:url(#linear-gradient-81)}.cls-82{fill:url(#linear-gradient-82)}.cls-83{fill:url(#linear-gradient-83)}.cls-84{fill:url(#linear-gradient-84)}.cls-85{fill:url(#linear-gradient-85)}.cls-86{fill:url(#linear-gradient-86)}.cls-87{fill:url(#linear-gradient-87)}.cls-88{fill:url(#linear-gradient-88)}.cls-89{fill:url(#linear-gradient-89)}.cls-90{fill:url(#linear-gradient-90)}.cls-91{fill:url(#linear-gradient-91)}.cls-92{fill:url(#linear-gradient-92)}.cls-93{fill:url(#linear-gradient-93)}.cls-94{fill:url(#linear-gradient-94)}.cls-95{fill:url(#linear-gradient-95)}.cls-96{fill:url(#linear-gradient-96)}.cls-97{fill:url(#linear-gradient-97)}.cls-98{fill:url(#linear-gradient-98)}.cls-99{fill:url(#linear-gradient-99)}.cls-100{fill:url(#linear-gradient-100)}.cls-101{fill:url(#linear-gradient-101)}.cls-102{fill:url(#linear-gradient-102)}.cls-103{fill:url(#linear-gradient-103)}.cls-104{fill:url(#linear-gradient-104)}.cls-105{fill:url(#linear-gradient-105)}.cls-106{fill:url(#linear-gradient-106)}.cls-107{fill:url(#linear-gradient-107)}.cls-108{fill:url(#linear-gradient-108)}.cls-109{fill:url(#linear-gradient-109)}.cls-110{fill:url(#linear-gradient-110)}</style><linearGradient id="linear-gradient" x1="847.66" y1="1315.96" x2="1439.76" y2="668.97" gradientUnits="userSpaceOnUse"><stop offset="0" stop-color="#bebebe"/><stop offset="1" stop-color="#dcdcdc"/></linearGradient><linearGradient id="linear-gradient-2" x1="744.49" y1="1221.55" x2="1336.59" y2="574.55" xlink:href="#linear-gradient"/><linearGradient id="linear-gradient-3" x1="290.95" y1="806.5" x2="883.06" y2="159.5" xlink:href="#linear-gradient"/><linearGradient id="linear-gradient-4" x1="288.09" y1="804.04" x2="880.29" y2="156.94" xlink:href="#linear-gradient"/><linearGradient id="linear-gradient-5" x1="422.96" y1="927.3" x2="1015.06" y2="280.3" xlink:href="#linear-gradient"/><linearGradient id="linear-gradient-6" x1="850.64" y1="1318.7" x2="1442.75" y2="671.7" xlink:href="#linear-gradient"/><linearGradient id="linear-gradient-7" x1="718.35" y1="1197.64" x2="1310.46" y2="550.63" xlink:href="#linear-gradient"/><linearGradient id="linear-gradient-8" x1="737.31" y1="1215" x2="1329.42" y2="567.99" xlink:href="#linear-gradient"/><linearGradient id="linear-gradient-9" x1="796.44" y1="1269.1" x2="1388.55" y2="622.1" xlink:href="#linear-gradient"/><linearGradient id="linear-gradient-10" x1="797.08" y1="1269.16" x2="1388.78" y2="622.6" xlink:href="#linear-gradient"/><linearGradient id="linear-gradient-11" x1="592.99" y1="1082.75" x2="1185.02" y2="435.84" xlink:href="#linear-gradient"/><linearGradient id="linear-gradient-12" x1="585.22" y1="1082.68" x2="1011.55" y2="616.83" xlink:href="#linear-gradient"/><linearGradient id="linear-gradient-13" x1="585.93" y1="1076.25" x2="1177.94" y2="429.35" xlink:href="#linear-gradient"/><linearGradient id="linear-gradient-14" x1="269.12" y1="786.53" x2="861.23" y2="139.52" xlink:href="#linear-gradient"/><linearGradient id="linear-gradient-15" x1="290.54" y1="806.15" x2="882.66" y2="159.13" xlink:href="#linear-gradient"/><linearGradient id="linear-gradient-16" x1="158.75" y1="685.43" x2="750.79" y2="38.49" xlink:href="#linear-gradient"/><linearGradient id="linear-gradient-17" x1="282.91" y1="799.1" x2="874.99" y2="152.12" xlink:href="#linear-gradient"/><linearGradient id="linear-gradient-18" x1="765.79" y1="1241.08" x2="1357.92" y2="594.05" xlink:href="#linear-gradient"/><linearGradient id="linear-gradient-19" x1="299.35" y1="814.09" x2="891.4" y2="167.15" xlink:href="#linear-gradient"/><linearGradient id="linear-gradient-20" x1="333.48" y1="845.41" x2="925.58" y2="198.42" xlink:href="#linear-gradient"/><linearGradient id="linear-gradient-21" x1="350.08" y1="860.63" x2="942.2" y2="213.62" xlink:href="#linear-gradient"/><linearGradient id="linear-gradient-22" x1="871.18" y1="282.61" x2="935.08" y2="212.79" xlink:href="#linear-gradient"/><linearGradient id="linear-gradient-23" x1="310.69" y1="824.77" x2="902.91" y2="177.64" xlink:href="#linear-gradient"/><linearGradient id="linear-gradient-24" x1="71.3" y1="605.48" x2="663.4" y2="-41.52" xlink:href="#linear-gradient"/><linearGradient id="linear-gradient-25" x1="293.76" y1="809.08" x2="885.87" y2="162.07" xlink:href="#linear-gradient"/><linearGradient id="linear-gradient-26" x1="431.33" y1="934.98" x2="1023.44" y2="287.97" xlink:href="#linear-gradient"/><linearGradient id="linear-gradient-27" x1="425.14" y1="929.49" x2="1017.34" y2="282.39" xlink:href="#linear-gradient"/><linearGradient id="linear-gradient-28" x1="-22.98" y1="519.23" x2="569.17" y2="-127.82" xlink:href="#linear-gradient"/><linearGradient id="linear-gradient-29" x1="358.35" y1="868.42" x2="950.58" y2="221.28" xlink:href="#linear-gradient"/><linearGradient id="linear-gradient-30" x1="89.12" y1="621.9" x2="681.33" y2="-25.21" xlink:href="#linear-gradient"/><linearGradient id="linear-gradient-31" x1="73.2" y1="607.22" x2="665.3" y2="-39.78" xlink:href="#linear-gradient"/><linearGradient id="linear-gradient-32" x1="69.96" y1="604.5" x2="662.29" y2="-42.75" xlink:href="#linear-gradient"/><linearGradient id="linear-gradient-33" x1="411.91" y1="917.19" x2="1004.01" y2="270.19" xlink:href="#linear-gradient"/><linearGradient id="linear-gradient-34" x1="407.51" y1="913.08" x2="999.57" y2="266.12" xlink:href="#linear-gradient"/><linearGradient id="linear-gradient-35" x1="90.16" y1="622.85" x2="682.36" y2="-24.25" xlink:href="#linear-gradient"/><linearGradient id="linear-gradient-36" x1="88.5" y1="621.22" x2="680.6" y2="-25.78" xlink:href="#linear-gradient"/><linearGradient id="linear-gradient-37" x1="91.69" y1="624.14" x2="683.79" y2="-22.86" xlink:href="#linear-gradient"/><linearGradient id="linear-gradient-38" x1="415.81" y1="920.75" x2="1007.7" y2="273.98" xlink:href="#linear-gradient"/><linearGradient id="linear-gradient-39" x1="561.23" y1="1053.8" x2="1153.31" y2="406.82" xlink:href="#linear-gradient"/><linearGradient id="linear-gradient-40" x1="681.63" y1="1163.98" x2="1273.7" y2="517.01" xlink:href="#linear-gradient"/><linearGradient id="linear-gradient-41" x1="686.71" y1="1168.7" x2="1278.83" y2="521.68" xlink:href="#linear-gradient"/><linearGradient id="linear-gradient-42" x1="598.41" y1="1087.86" x2="1190.51" y2="440.87" xlink:href="#linear-gradient"/><linearGradient id="linear-gradient-43" x1="602.29" y1="1091.41" x2="1194.39" y2="444.42" xlink:href="#linear-gradient"/><linearGradient id="linear-gradient-44" x1="260.78" y1="778.88" x2="852.88" y2="131.88" xlink:href="#linear-gradient"/><linearGradient id="linear-gradient-45" x1="199" y1="722.59" x2="791.27" y2="75.41" xlink:href="#linear-gradient"/><linearGradient id="linear-gradient-46" x1="200.3" y1="723.3" x2="792.23" y2="76.47" xlink:href="#linear-gradient"/><linearGradient id="linear-gradient-47" x1="341.12" y1="852.4" x2="933.22" y2="205.4" xlink:href="#linear-gradient"/><linearGradient id="linear-gradient-48" x1="356.88" y1="866.97" x2="949.07" y2="219.88" xlink:href="#linear-gradient"/><linearGradient id="linear-gradient-49" x1="369.67" y1="878.27" x2="961.62" y2="231.44" xlink:href="#linear-gradient"/><linearGradient id="linear-gradient-50" x1="355.94" y1="865.96" x2="948.03" y2="218.96" xlink:href="#linear-gradient"/><linearGradient id="linear-gradient-51" x1="358.31" y1="868.28" x2="950.49" y2="221.2" xlink:href="#linear-gradient"/><linearGradient id="linear-gradient-52" x1="396.63" y1="903.33" x2="988.79" y2="256.26" xlink:href="#linear-gradient"/><linearGradient id="linear-gradient-53" x1="859.66" y1="396.2" x2="1052.84" y2="185.12" xlink:href="#linear-gradient"/><linearGradient id="linear-gradient-54" x1="-1.7" y1="538.64" x2="590.32" y2="-108.27" xlink:href="#linear-gradient"/><linearGradient id="linear-gradient-55" x1="1.22" y1="541.36" x2="593.33" y2="-105.65" xlink:href="#linear-gradient"/><linearGradient id="linear-gradient-56" x1="-9.21" y1="531.83" x2="582.94" y2="-115.22" xlink:href="#linear-gradient"/><linearGradient id="linear-gradient-57" x1="294.34" y1="88.49" x2="327.07" y2="52.72" xlink:href="#linear-gradient"/><linearGradient id="linear-gradient-58" x1="98.04" y1="629.97" x2="690.16" y2="-17.05" xlink:href="#linear-gradient"/><linearGradient id="linear-gradient-59" x1="396.72" y1="338.56" x2="462.88" y2="266.26" xlink:href="#linear-gradient"/><linearGradient id="linear-gradient-60" x1="99.66" y1="631.45" x2="691.77" y2="-15.57" xlink:href="#linear-gradient"/><linearGradient id="linear-gradient-61" x1="109.6" y1="640.58" x2="701.74" y2="-6.47" xlink:href="#linear-gradient"/><linearGradient id="linear-gradient-62" x1="85.31" y1="618.21" x2="677.33" y2="-28.69" xlink:href="#linear-gradient"/><linearGradient id="linear-gradient-63" x1="691.09" y1="1172.79" x2="1283.26" y2="525.71" xlink:href="#linear-gradient"/><linearGradient id="linear-gradient-64" x1="685.02" y1="1167.12" x2="1277.11" y2="520.13" xlink:href="#linear-gradient"/><linearGradient id="linear-gradient-65" x1="694.39" y1="1175.78" x2="1286.54" y2="528.72" xlink:href="#linear-gradient"/><linearGradient id="linear-gradient-66" x1="678.44" y1="1161.07" x2="1270.52" y2="514.1" xlink:href="#linear-gradient"/><linearGradient id="linear-gradient-67" x1="684.67" y1="1166.93" x2="1276.86" y2="519.83" xlink:href="#linear-gradient"/><linearGradient id="linear-gradient-68" x1="614.03" y1="1102.16" x2="1206.13" y2="455.16" xlink:href="#linear-gradient"/><linearGradient id="linear-gradient-69" x1="673.38" y1="1156.52" x2="1265.51" y2="509.49" xlink:href="#linear-gradient"/><linearGradient id="linear-gradient-70" x1="350.32" y1="860.83" x2="942.42" y2="213.83" xlink:href="#linear-gradient"/><linearGradient id="linear-gradient-71" x1="22.66" y1="560.99" x2="614.8" y2="-86.06" xlink:href="#linear-gradient"/><linearGradient id="linear-gradient-72" x1="660.66" y1="1144.81" x2="1252.74" y2="497.83" xlink:href="#linear-gradient"/><linearGradient id="linear-gradient-73" x1="637.59" y1="1123.74" x2="1229.7" y2="476.73" xlink:href="#linear-gradient"/><linearGradient id="linear-gradient-74" x1="661.71" y1="1145.8" x2="1253.81" y2="498.8" xlink:href="#linear-gradient"/><linearGradient id="linear-gradient-75" x1="654.7" y1="1139.38" x2="1246.8" y2="492.38" xlink:href="#linear-gradient"/><linearGradient id="linear-gradient-76" x1="466.82" y1="967.45" x2="1058.92" y2="320.45" xlink:href="#linear-gradient"/><linearGradient id="linear-gradient-77" x1="427.29" y1="931.25" x2="1019.37" y2="284.26" xlink:href="#linear-gradient"/><linearGradient id="linear-gradient-78" x1="414.47" y1="919.55" x2="1006.58" y2="272.54" xlink:href="#linear-gradient"/><linearGradient id="linear-gradient-79" x1="213.07" y1="735.3" x2="805.22" y2="88.24" xlink:href="#linear-gradient"/><linearGradient id="linear-gradient-80" x1="168.42" y1="694.37" x2="760.53" y2="47.36" xlink:href="#linear-gradient"/><linearGradient id="linear-gradient-81" x1="629.15" y1="1115.99" x2="1221.24" y2="468.99" xlink:href="#linear-gradient"/><linearGradient id="linear-gradient-82" x1="649.4" y1="1134.68" x2="1241.6" y2="487.58" xlink:href="#linear-gradient"/><linearGradient id="linear-gradient-83" x1="608.49" y1="1097.02" x2="1200.55" y2="450.07" xlink:href="#linear-gradient"/><linearGradient id="linear-gradient-84" x1="652.31" y1="1137.12" x2="1244.36" y2="490.17" xlink:href="#linear-gradient"/><linearGradient id="linear-gradient-85" x1="643.69" y1="1129.21" x2="1235.73" y2="482.28" xlink:href="#linear-gradient"/><linearGradient id="linear-gradient-86" x1="657.85" y1="642.46" x2="837.1" y2="446.58" xlink:href="#linear-gradient"/><linearGradient id="linear-gradient-87" x1="410.8" y1="916.17" x2="1002.9" y2="269.18" xlink:href="#linear-gradient"/><linearGradient id="linear-gradient-88" x1="344.53" y1="855.5" x2="936.61" y2="208.52" xlink:href="#linear-gradient"/><linearGradient id="linear-gradient-89" x1="204.84" y1="727.69" x2="796.94" y2="80.69" xlink:href="#linear-gradient"/><linearGradient id="linear-gradient-90" x1="628.94" y1="1115.99" x2="1221.17" y2="468.84" xlink:href="#linear-gradient"/><linearGradient id="linear-gradient-91" x1="620.02" y1="1107.72" x2="1212.17" y2="460.67" xlink:href="#linear-gradient"/><linearGradient id="linear-gradient-92" x1="259.99" y1="778.17" x2="852.1" y2="131.16" xlink:href="#linear-gradient"/><linearGradient id="linear-gradient-93" x1="73.53" y1="607.55" x2="665.68" y2="-39.5" xlink:href="#linear-gradient"/><linearGradient id="linear-gradient-94" x1="172.91" y1="698.52" x2="765.07" y2="51.46" xlink:href="#linear-gradient"/><linearGradient id="linear-gradient-95" x1="258.65" y1="776.93" x2="850.73" y2="129.95" xlink:href="#linear-gradient"/><linearGradient id="linear-gradient-96" x1="160.17" y1="686.81" x2="752.27" y2="39.82" xlink:href="#linear-gradient"/><linearGradient id="linear-gradient-97" x1="286.54" y1="213.39" x2="352.37" y2="141.45" xlink:href="#linear-gradient"/><linearGradient id="linear-gradient-98" x1="161.71" y1="688.35" x2="753.96" y2="41.19" xlink:href="#linear-gradient"/><linearGradient id="linear-gradient-99" x1="188.33" y1="712.56" x2="780.41" y2="65.59" xlink:href="#linear-gradient"/><linearGradient id="linear-gradient-100" x1="162.86" y1="689.41" x2="755.11" y2="42.25" xlink:href="#linear-gradient"/><linearGradient id="linear-gradient-101" x1="147.37" y1="675.11" x2="739.48" y2="28.1" xlink:href="#linear-gradient"/><linearGradient id="linear-gradient-102" x1="575.37" y1="1066.8" x2="1167.49" y2="419.79" xlink:href="#linear-gradient"/><linearGradient id="linear-gradient-103" x1="244.79" y1="764.22" x2="836.83" y2="117.29" xlink:href="#linear-gradient"/><linearGradient id="linear-gradient-104" x1="153.52" y1="680.73" x2="745.63" y2="33.72" xlink:href="#linear-gradient"/><linearGradient id="linear-gradient-105" x1="232.69" y1="753.2" x2="824.83" y2="106.16" xlink:href="#linear-gradient"/><linearGradient id="linear-gradient-106" x1="247.86" y1="767.17" x2="840.17" y2="119.94" xlink:href="#linear-gradient"/><linearGradient id="linear-gradient-107" x1="556.61" y1="1049.61" x2="1148.71" y2="402.61" xlink:href="#linear-gradient"/><linearGradient id="linear-gradient-108" x1="368.19" y1="877.2" x2="960.31" y2="230.19" xlink:href="#linear-gradient"/><linearGradient id="linear-gradient-109" x1="292.82" y1="808.23" x2="884.96" y2="161.19" xlink:href="#linear-gradient"/><linearGradient id="linear-gradient-110" x1="269.24" y1="786.59" x2="861.27" y2="139.67" xlink:href="#linear-gradient"/></defs><title>world</title><path class="cls-1" d="M1286.63 849.26c-1.63.24-3.25 1.28-4.88 0-.6-2.26-.59-4.73-2.3-6.61-1.91-1.67-1.11-3.81-1-5.83a19.5 19.5 0 0 0-1-2.7c-.66-1.21-1.1-3.18-2.94-2.56-1.55.53-1.52 2.24-1.21 3.78s.43 2.86.64 4.29c.33 2.27.47 4.57 1 6.81l-.27 3.72-1.76 2.29c-3.87 2.33-5.49 5.49-4 10 .34 1-.29 2.22.17 3.31.19.67.33 1.35.51 2-.66.91-.6 1.95.3 3.16a3.8 3.8 0 0 0 3.14-1.62c5.55-5.42 10-11.74 14.66-17.9a1.82 1.82 0 0 0-1.06-2.14z" transform="translate(-112.21 -218.11)"/><path class="cls-2" d="M1211.34 786.66q0-3.85.08-7.71c-1-1.49-2.18-2.84-2.42-4.7-1.19-2.07-2.65-3.85-3.06-6.47s-2.07-3.88-4.47-2.53c-.09-1-.18-2-.26-3a17 17 0 0 0-8.21-9.69 3.62 3.62 0 0 1-1.89-3.7c.28-4.64-2.72-8.65-2.39-13.29a2.86 2.86 0 0 0-2-3.11c-3.16-.55-3-2.85-3.35-5.11a11.9 11.9 0 0 0-2.05-5.44l.26-1.93c-3.35-1.72-2.12 1.4-2.73 2.59-1.38 1.54-1.54 3.55-1.81 5.42-.68 4.6-1.18 9.22-2.77 13.64-1.36 3.8-3.44 5.4-7.23 2.83-1.32-3-4.51-3.38-6.9-4.89-.83-1.68-2.52-2.13-4.06-2.79-1-1.06-2.9-1.71-1.74-3.77a5.46 5.46 0 0 0 1.65-5l.26-.17c3.12-.3 3.48-2.19 2.71-4.72l-2.56.49a9.47 9.47 0 0 0-.86-.52c-3.83-.05-7.24-1.7-10.79-2.8a3.58 3.58 0 0 0-2.13.85 4.94 4.94 0 0 0-2.93.95 3.11 3.11 0 0 0 .32.23c-1.7.57-3.44 1-4.64 2.6-.7 1.79-2.3 3.07-2.9 4.84-1.08 3.21-2.92 3.3-5.41 1.73a7.16 7.16 0 0 0-1.34-.51 6.24 6.24 0 0 0-1.24-.42 2.22 2.22 0 0 0-2.55-.24c-.75 0-1.51.05-2.26.05-2.84.78-4.76 2.83-6.69 4.87a7.24 7.24 0 0 0-.54 2.4l-2.08 2.08-.19.2-2.15.9c-2.93.66-3.69 2.57-3.82 4.85-.18.45-.35.91-.54 1.36s-.24.72-.37 1.07c-1.81 1.69-2.61 4.52-5.43 5a98.79 98.79 0 0 0-21.71 6.93 30.59 30.59 0 0 1-3.6 1c-3.32 1.62-2.84 5.19-4 7.91a39.88 39.88 0 0 0 .9 6.45 34.06 34.06 0 0 1-.83 6.45l1.4 1.87c1.55 6.28 2 12.72 2.66 19.12.32 3.09-.21 6.28-2.54 8.57-2 2-1.2 3.22.34 4.83 3.69 3.86 7.52 3.57 14.07-1.25 6.45-2.29 13.93 1 20-5 4.56-4.5 11.9-3.62 17.94-4.87 7.95-1.65 18.12 3.14 18.06 14 0 .61 0 1.35 1 1.54 2.37-.93 3.22-4 5.91-4.67l1 1.5c-.39 1.72-.69 3.35-2.23 4.68s.39 1.29 1.08 1.66l2-1.73 1.06 1.91a2.78 2.78 0 0 0 1.74 1.94 9.24 9.24 0 0 1 1.35 6.88c-.73 3.56 1 6.38 4.39 7.63a10.6 10.6 0 0 1 5.35 3.88l7.46-3.13c2 5.59 2.07 5.65 6.57 2.37 2.27-1.66 4.52-3.07 7.5-3 2.69.07 3.87-1.46 4.46-4.11 1.74-7.79 6.05-14.7 11.18-20.19 6.76-7.25 8.2-16.21 11.52-24.63a6.63 6.63 0 0 1-.55-4.98zm-124 26.72l-.9.19a7.54 7.54 0 0 1 .85-.18z" transform="translate(-112.21 -218.11)"/><path class="cls-3" d="M783.63 265.27c0 .65 0 1.29-.06 1.93s.68.66 1 1l2.07-.13c.25-.25.66-.33.86-.63a6.45 6.45 0 0 0 1.92.2c.23-.14.47-.28.72-.41 2.76 1.75 4.48-.12 6.16-2.09a6.45 6.45 0 0 1 5-2 8.38 8.38 0 0 0 0-.91 5.68 5.68 0 0 1 .79-.23c.29-1.46-1.39-2.57-.71-4.11 1-2.3-1.16-3.06-2.31-3.42-2.23-.7-1.73 1.71-2.13 2.82a14.62 14.62 0 0 0-.37 3.77l-2 1.06-2.07-2.93c1.72-2.71-.85-3.58-2.14-5l-.93-2.87-2.69-.93-1.14 3.95-.93 1.85c-1.4 1.08 2 3.08-.76 3.9l-.19 1.12v1.9a2 2 0 0 0-.09 2.16z" transform="translate(-112.21 -218.11)"/><path class="cls-4" d="M799.63 245.83c-.17-.22-.34-.6-.51-.61s-.48.28-.72.44l.51.64z" transform="translate(-112.21 -218.11)"/><path class="cls-5" d="M1049.17 251.2l.91-.8c1.31-1.65.86-3.67-.81-3.87-3.53-.41-7.14-2.54-10.73-.2-1.06.76-.87 1.9-.88 3a10.94 10.94 0 0 0 11.51 1.87z" transform="translate(-112.21 -218.11)"/><path class="cls-6" d="M1260.09 866.14c-.37 3.06-2.77 4.5-4.91 6.16a5.64 5.64 0 0 0-1.73 3.55 1.39 1.39 0 0 0 .24.71l-.45.37a3.35 3.35 0 0 0-1.06-.33c-1.75 0-2.5 1.49-3.64 2.4-4.48 4.2-10.78 6.15-14.31 11.55-1.2 1.84-3.32 3.41-1.59 6 7 3.47 8.52 3.32 12.82-1.41a13.2 13.2 0 0 0 1.69-2.38c2.6-4.6 5.66-8.68 11-10.28a7.63 7.63 0 0 0 2.62-3.82 1.93 1.93 0 0 1 .35-.8c.25-2.27 2.51-2.63 3.76-3.95 2.07-1.33 1.2-3.81 2.18-5.57-2.63.36-3.72-4.34-6.97-2.2z" transform="translate(-112.21 -218.11)"/><path class="cls-7" d="M1199 714.36c2.79 2.23 6.08 1.52 9.47 2-.75-1.89-1.54-3-3.23-3.07-1.68-2.17-3.34-4.36-5-6.5-.8-1-2.38-2.14-1.49-3.28 2.6-3.32-.24-3.71-2.19-4.63a14 14 0 0 1-2.16-1.09c-.29-.33-.59-.64-.91-1a3.06 3.06 0 0 1-.26-.56c-.07-1.63-1-2.35-2.55-2.54l-2-.55-2.3-1.77a4.25 4.25 0 0 0-3.61-1.5l-3.85-1.38c-2.63-2-6.17-1.28-8.9-3a2.19 2.19 0 0 1-2.14-.66c-2.29-2.18-4.42-3.14-5.91.77-3 .4-4 3.09-5.78 4.88l-4.07-2.82c-1.09-2.45.39-5.22-.95-7.64l.14-.07c-3.11-1.07-6.3-3.55-9.07.59 0 .05 0 .09.06.13a2.06 2.06 0 0 0-.71.17v1.92l3.92 3.13.07.42c-.25.13-.51.27-.76.42-1.13 4.4.19 6.59 4.29 6.82a24.29 24.29 0 0 1 4.68 1.14c3.88 1 7.51 2.72 11.38 3.71l.18.1a6.93 6.93 0 0 0 .79.35l.9 2.66q-.09 1.81-.17 3.63l-2.64 2.18 1 1.11c2.51 1.17 5.33-1 7.79.73a2 2 0 0 1 .09.68c2.44 3 5.87 3 9.21 2.75 2.08-.16 2.58-.71 1.82-2.08 2.12-2 3.39-6.44 7.61-2.4l2.71.29c.71 1.88 1.79 3.39 3.89 3.89l.07-.12a2.18 2.18 0 0 0 .58 2.19z" transform="translate(-112.21 -218.11)"/><path class="cls-8" d="M1217.1 691.54c-2.92 1.32-4.32 5-8 5.15-.29 0-.57 0-.86-.08-1.4 1.59-3.82.23-5.52 2 4.63 3.84 8.92 2.42 13.19-.3l1.08-2.79.54-.09 2.3.07.13-1.86c-.88-.78-1.13-2.45-2.86-2.1z" transform="translate(-112.21 -218.11)"/><path class="cls-9" d="M1174.75 857.91c-3.53.48-7.19-2.93-9.26-1.89-3.13 1.56.34 6.36-1.42 8.9-.22 4.94 1.68 7.8 4 6.56a15.9 15.9 0 0 0 8.44-10.86c.44-1.67-.42-2.89-1.76-2.71z" transform="translate(-112.21 -218.11)"/><path class="cls-10" d="M1177.54 852.71a5.21 5.21 0 0 0 .52 1.22l.86-1.08-1-.92c-.13.26-.41.55-.38.78z" transform="translate(-112.21 -218.11)"/><path class="cls-11" d="M1182.48 440.14c2.44-.52 1.76-3.09 2.92-4.4a2.78 2.78 0 0 1 0-.71l-2.66 1c.4 1.38-1.31 2.6-.26 4.11z" transform="translate(-112.21 -218.11)"/><path class="cls-12" d="M1207.94 402.28h-.1v.06z" transform="translate(-112.21 -218.11)"/><path class="cls-13" d="M1202.17 397.27c1.6 3.54 3.34 4.68 5.67 5-1.04-2.04-2.63-3.38-5.67-5z" transform="translate(-112.21 -218.11)"/><path class="cls-14" d="M737.55 275.61a2.44 2.44 0 0 0 2.1-1.73.92.92 0 0 0-1.23-1c-1 .19-1.91.62-2.1 1.71-.13.78.52 1.12 1.23 1.02z" transform="translate(-112.21 -218.11)"/><path class="cls-15" d="M778.76 273.12l2.15-1.07c-1-2.19-2-1.67-3 .05z" transform="translate(-112.21 -218.11)"/><path class="cls-16" d="M564.83 242.71c.63.43.93-.39 1.12-.95l-1.84-1c.23.68.26 1.63.72 1.95z" transform="translate(-112.21 -218.11)"/><path class="cls-17" d="M766 267.27c3.09.45 1.59-1.91 1.93-3.14l-.38.62a.9.9 0 0 1 .38-.62l2.15-.88c0 .72 2.48.68.35 2.26-1.45 1.08-.89 3.58.46 5.1.73.83 2.54 1.26 3 .27 1.33-2.92 4.67-4.94 4.07-8.74-.83-.82-1.08-2.62-2.8-2-1.23.46-1.24 1.73-1.25 2.87l-3.05.26c-.13-.23-.26-.33-.4-.32-2.1-1.55-3.89-.73-5.49 1.12-1.37 1.57-.97 2.66 1.03 3.2z" transform="translate(-112.21 -218.11)"/><path class="cls-18" d="M1145.38 825.78l-1.93.31c-.06 1.34 1 1.46 1.91 1.78.62-.36 1.64-.41 1.51-1.36-.05-.3-.97-.51-1.49-.73z" transform="translate(-112.21 -218.11)"/><path class="cls-19" d="M799.35 269.32c.47-.61 1-1.27.37-2a1.24 1.24 0 0 0-1.17-.22c-.84.48-.35 1.37-.41 2.08z" transform="translate(-112.21 -218.11)"/><path class="cls-20" d="M871.87 246.64a8.62 8.62 0 0 0 0 .94l-1.42.92.49 1.2c.35 2.42 1.64 3.86 4.19 3.73 3-.16 5.23 1.41 7.5 3l2-.14c2.8-.57 5.49.47 8.23.58 2.08.09 5-.58 3.24-3.44A56.38 56.38 0 0 1 893 247c-1.48-3.17-3.68-5-7.38-3.3a2.46 2.46 0 0 0-2.9-.9l-1.18-1c-.91-1.52-1.58-3.27-2.78-4.5-2-2-4.19-4.33-7-4.68-1.62-.2-2.69 2.6-2.74 4.11-.14 3.51-1.17 7.54 2.85 9.91z" transform="translate(-112.21 -218.11)"/><path class="cls-21" d="M900.25 251.53c.56 2.87 1.07 5.75 1.7 8.6.77 3.51 2 5.52 5 1.4.72-1 2.09-1.48 3.17-2.19 3.62-2.11 4-4.63.94-7.57-2.57-.89-4.86-2.69-7.79-2.43l-.16-1.64c-2.71-.28-3.93.57-3.24 2.86a2 2 0 0 0 .38.97z" transform="translate(-112.21 -218.11)"/><path class="cls-22" d="M903.13 247.68z" transform="translate(-112.21 -218.11)"/><path class="cls-23" d="M839.05 248.25c.35-.13.83-.42.89-.71s-.27-.76-.61-1.59a10.14 10.14 0 0 0-.93 1.86c-.03.11.49.5.65.44z" transform="translate(-112.21 -218.11)"/><path class="cls-24" d="M361.27 270.22c.85 4.4 3 .54 4.53.71l1.41 1.26c-.08.29-.17.59-.27.88l-3.87 1.93c-2.25 1.35-.57 2.68 0 4l1.08-.23 1 .36c.52 2.23 2.91 2.4 4.19 3.8-1.16.91-1.74 2.1-.67 3.3a6 6 0 0 0 6.74 1.38c4.73-1.86 9.38-1.4 14.14-.83 2.5.44 3.86-1.76 5.85-2.5l.2-1.24c2.65-1.26 4.17-4.71 1.6-5.28-4.92-1.08-4.31-3.49-3.74-6.79.18-1 .42-2.44-.91-3s-2.44.47-3.42 1.3c-1.2 1-1.17 2.58-1.67 3.92-1 2.64-1.53 5.87-5.52 5.58-.11-4.21-.89-8.21-3.38-11.73-.73-2.65-.49-4.94 1.74-7a7.4 7.4 0 0 0 2.29-6.59l-1.86-.25-5-.71a6.22 6.22 0 0 0-3.91 1.77l-6 3.89c-3.37.44-6.38 2-9.5 3.18-3.05 1.48-1.11 3.14-.18 4.77 2.49.55 3.86 2.26 5.13 4.12z" transform="translate(-112.21 -218.11)"/><path class="cls-25" d="M803.62 255c1.45 0 2.23-1.42 2.32-2.73.11-1.5-.47-3.16-2.12-3.36-1.83-.21-2.28 1.42-2.49 2.9.09 1.64.42 3.19 2.29 3.19z" transform="translate(-112.21 -218.11)"/><path class="cls-26" d="M1039.42 273.05c1.53-.09 4.32.47 4-2s-3.24-2.86-5.44-3.15c-2-.26-2.84 1.08-2.91 3 .26 2.99 2.63 2.26 4.35 2.15z" transform="translate(-112.21 -218.11)"/><path class="cls-27" d="M1031 265.56c-.86 0-1 .66-.83 1.35a2 2 0 0 0 1.58 1.62c.89-.12.92-.77.79-1.41-.12-.82-.54-1.55-1.54-1.56z" transform="translate(-112.21 -218.11)"/><path class="cls-28" d="M149.38 336.36a1.6 1.6 0 0 0 2.1-1.9c-.63-2.94-2.5-4.82-5.86-5.64-.79.17-2.24 1.13-1.68 2 1.41 2.18 2.97 4.47 5.44 5.54z" transform="translate(-112.21 -218.11)"/><path class="cls-29" d="M921.09 256.1l-4.11-.7c.92 2.31 2.38 2.14 4.11.7z" transform="translate(-112.21 -218.11)"/><path class="cls-30" d="M395.54 284.59a3.54 3.54 0 0 0 0 3.13c1.29-.06 2.76-.07 2.62-1.87-.16-1.56-1.52-1.32-2.62-1.26z" transform="translate(-112.21 -218.11)"/><path class="cls-31" d="M387.81 254.27c.77 1.74.61 4 2.88 4.88 3.45 3.25 4.73 3 7.76-1.73l1.84-.11h.71c1.87-.57 3.26-2.08 5.15-2.59a5.5 5.5 0 0 0 2.08-7.13c-.67-1.16-1.25-2.43-3-2.08l-2-.13c-2.28.94-5.63-1.59-7 2.17l.18 1.92a2.66 2.66 0 0 1-3 2l-3-.89c-2.62 0-3.06 1.53-2.67 3.68z" transform="translate(-112.21 -218.11)"/><path class="cls-32" d="M381.75 262.82c-.39.44-.2.88.33 1 .23.06.53-.19.8-.3-.1-.29-.12-.69-.3-.8a.87.87 0 0 0-.83.1z" transform="translate(-112.21 -218.11)"/><path class="cls-33" d="M1011.84 256.49l1.44 3.52 1.65.53 2.82.93c3.56 3.2 5.55 1.3 7.07-2.17 3.54-3.16 10.53-4.06 7.53-11.5-2.61.23-5.18-2.17-7.82-.11l-1.52-.07c-2.38-1.34-4.5-2-4.8 1.89l-3.21.07c-1.3-1.13-2.75-2.79-4.42-1.17a3.85 3.85 0 0 0-.62 4.82c.64 1.08 1.26 2.17 1.88 3.26z" transform="translate(-112.21 -218.11)"/><path class="cls-34" d="M1009.27 259.36c-.49-1.83-1-3.62-3.17-4.21-.1 2.25.67 3.85 3.17 4.21z" transform="translate(-112.21 -218.11)"/><path class="cls-35" d="M417.85 263.63a2.33 2.33 0 0 0 1.5.79c.38.07.83-.27.91-.3-.39-1.34-.9-1.68-1.57-1.66s-1.24.54-.84 1.17z" transform="translate(-112.21 -218.11)"/><path class="cls-36" d="M417.91 256.41c2.59 1.15 4.83 2.62 4.71 5.91 0 1.33-.14 2.79 1.52 3 2.2.33 2.55-1.4 2.82-3 1.95-1.06 1.38-3.21 2.08-4.82 2.5-3.94 2-6-2-8l-1.19-2.92c-.55-2.14-2.1-2.26-3.78-1.72-1.92.63-2.2 2.2-1.76 3.93s.71 3.53-1.38 4.56a1.48 1.48 0 0 0-2.39.57c-.69 1.4.18 2.08 1.37 2.49z" transform="translate(-112.21 -218.11)"/><path class="cls-37" d="M440.67 244.82c1.26.07 1.48-1 1.67-1.94-.07-1.08-.49-1.9-1.69-1.92a1.49 1.49 0 0 0-1.66 1.83c.12.96.51 1.97 1.68 2.03z" transform="translate(-112.21 -218.11)"/><path class="cls-38" d="M430.05 903.15l2.59 1.32c1.22-.25 1.55-.93 1-2-1.25-.06-2.95-2.38-3.59.68z" transform="translate(-112.21 -218.11)"/><path class="cls-39" d="M1182.86 374.88l1.68.12c.64-1.22 2.06-3-.15-3.43-1.85-.34-1.72 1.83-1.53 3.31z" transform="translate(-112.21 -218.11)"/><path class="cls-40" d="M1131.67 672.6c.2-.84-1.58-.89-2.41-.61-2.27.79-1.79 2.69-1.56 4.46.1.79.12 1.6.17 2.4.78.18 1.24 0 .92-.9.09-.3.13-.84.28-.87 2.41-.58 2.21-2.87 2.6-4.48z" transform="translate(-112.21 -218.11)"/><path class="cls-41" d="M1124.49 688.87l-.31.05-.18 2.7c2.57-.48 1.54-1.62.49-2.75z" transform="translate(-112.21 -218.11)"/><path class="cls-42" d="M1146.47 485.85c-3.12-.28-3.11 2.26-3.31 4.11a3.85 3.85 0 0 0 3.37 4.46c1.15-.12 2.15-.4 2-1.89-.17-3.22 2.36-3.41 3.95-2.46 4.37 2.64 5.48-.12 6.64-3.32 2.29-.32 4.53-.68 2.94-3.91v-1c-2.19-1.94-5.3-.45-7.59-2-2.23-2-3.76-5-7.61-5.15.51 2.78 1.93 5 1.43 7.39-.29 1.29 1.5 3.83-1.82 3.77z" transform="translate(-112.21 -218.11)"/><path class="cls-43" d="M1170.48 470.88c-2.77.78-4 2.25-4.36 4.57.26.1.66.35.72.28 1.34-1.37 2.87-2.62 3.64-4.85z" transform="translate(-112.21 -218.11)"/><path class="cls-44" d="M689.5 291.68c-1.5 4.67-1.42 4.78 5.06 7.21 3.55 1.12 1.86 3.91 1.95 6.12a3 3 0 0 0 .77 1.22 2.62 2.62 0 0 0 2.35.53l1.66 1.68c.55.76 1.08 1.54 1.66 2.28.83 1 1.28 2.95 3 2.42s1.1-2.35 1.3-3.68c1.38.2 1.7-.85 1.87-2.05a10.23 10.23 0 0 1 1-4 20.88 20.88 0 0 1 .18-2.9c.3-1.52.1-4 1.9-4 2.35-.07 2.06 2.43 2.13 4.11s-.18 4 2.21 4.13c1.8.12 4 1.28 5.5-.59s1.15-4-.06-5.9c-1.73-2.71-3.37-5.61-6.74-6.66a3 3 0 0 1-2.18-2.88c.48-1.47 1.61-2.27 3-1.82 3.41 1.1 6-.73 8.71-2.13q0-1 .06-1.94c2.9-6 2.5-6.53-3.68-8.32-3.56-1-6.72.78-10.09.49v-1c-2.79-2.33-5.11-1.1-6.32 1.52-1 2.15-2.68 2.56-4.39 3.34-3 3.53-7.36.1-10.69 2a2.36 2.36 0 0 0-.94 1.86v.12c-1.18.54-.59 1.72-.34 2.77.62 2.04 1.38 3.96 1.12 6.07z" transform="translate(-112.21 -218.11)"/><path class="cls-45" d="M625.83 256.39c-2.19-.93-1.72.87-2 1.92 1.88.6 1.94-.66 2-1.92z" transform="translate(-112.21 -218.11)"/><path class="cls-46" d="M628.77 256.39c-.66-.93-1.31-1.92-2 0a1.27 1.27 0 0 0 2 0z" transform="translate(-112.21 -218.11)"/><path class="cls-47" d="M807.07 341.75l-1.61.08c-1.52 1.29-1.15 3.07-1.21 4.74 3.51 3.38 7.88 5.38 12.21 7.33a5.88 5.88 0 0 0 6.36-.63c.29 0 .58 0 .86-.06.46-3.54-2.4-4.38-4.66-5.71l-2.84-4c-3.17-8 1.08-15.5 1.88-23.24.16-1.52 1.42-2 2.71-2.42a31.41 31.41 0 0 1 12.32-15.34c4.52-2.93 4.54-4.86.57-8.69-3.15-.8-4.85.62-5.52 3.61-1.41 2-3.16 4-5.54 4.37-3.32.49-5.41 2.44-7.56 4.57-2.4 5.06-7.23 9.17-5.93 15.71.22 1.13-.65 2.47-1 3.72l-1.8 1.23 2 4.55c-2.68 3.17-.89 6.8-1.24 10.18z" transform="translate(-112.21 -218.11)"/><path class="cls-48" d="M852.78 326.86a1.65 1.65 0 0 0 1.83-1.67 2 2 0 0 0-1.83-1.89 1.51 1.51 0 0 0-1.72 1.74c.07 1.05.58 1.85 1.72 1.82z" transform="translate(-112.21 -218.11)"/><path class="cls-49" d="M876.09 322.85a1.29 1.29 0 0 0-.56 1.12c.27 1.2 1.37 1.06 2.27 1.19 0-.38 0-.76.07-1.14-.55-.48-.87-1.46-1.78-1.17z" transform="translate(-112.21 -218.11)"/><path class="cls-50" d="M873.18 300a4.62 4.62 0 0 0 .87.76l.61-.85a4.8 4.8 0 0 0-1-.55c-.13-.02-.54.57-.48.64z" transform="translate(-112.21 -218.11)"/><path class="cls-51" d="M899.89 277.22a2 2 0 0 0 1.79-1.59c.15-.79-.36-1.18-1.1-.93a1.83 1.83 0 0 0-1.42 1.68c0 .3.51.62.73.84z" transform="translate(-112.21 -218.11)"/><path class="cls-52" d="M960.66 288.61a1.8 1.8 0 0 0-2.08-1.66c-2.22.26-2.13 2.08-2.31 3.68 1.57-.45 4.66 2.28 4.39-2.02z" transform="translate(-112.21 -218.11)"/><path class="cls-53" d="M956.26 290.63z" transform="translate(-112.21 -218.11)"/><path class="cls-54" d="M112.21 414.26c1.49-.94 3.49-1.36 4.25-4l-3.26 1.34z" transform="translate(-112.21 -218.11)"/><path class="cls-55" d="M122.88 408c-2 .05-2.78 1.92-4.05 3a5.85 5.85 0 0 0-.81 1.19l1.94-.11c1-1.36 3.54-1.15 3.51-3.49-.01-.15-.39-.59-.59-.59z" transform="translate(-112.21 -218.11)"/><path class="cls-56" d="M145.44 361.32c-.79 0-1.74.22-1.48 1.3s1.24 1.35 2.26 1.26a1.53 1.53 0 0 0 1.48-1.62c-.29-1.26-1.36-1-2.26-.94z" transform="translate(-112.21 -218.11)"/><path class="cls-57" d="M310.71 70.6v.01-.01z"/><path class="cls-58" d="M406.32 273.92c-.71-1.6-1.42-1.56-2.14 0l-1.83 3.08c.35 2.84 1 5.58 2.91 7.82 1.19 2.17 1 4.53.95 6.86l1 1a8.17 8.17 0 0 0 5.93-.05l1-1c1.37-.52 1.42.8 2 1.44-1.41 2.33.45 3.34 2 4.45 2.07.5 4.4 1.67 4.89-1.88a4.93 4.93 0 0 0 .85-.07c1.32-1.64 1.4-3.25-.09-4.83l-.91-.87c0-.39.08-.77.12-1.16-3.87.35-5-1.49-4-5l1.94-4.72v-1.88c-2.93-.13-5.32-4.5-8.71-1.14-3.23 2.71-4.86 1.15-5.91-2.05z" transform="translate(-112.21 -218.11)"/><path class="cls-59" d="M429.83 302.41z" transform="translate(-112.21 -218.11)"/><path class="cls-60" d="M435.59 273.5c.75.19 1.86-.14 1.93-1 .14-1.86-1.24-2.77-2.76-3.44a3.64 3.64 0 0 1 2.85-1.9 3.42 3.42 0 0 0 3-4.26c-.38-2-1.81-3.77-3-5.5-3.08-2.79-4.84-1.34-6 1.9l-.57 9.88c-.35 3.38 2.27 3.74 4.55 4.32z" transform="translate(-112.21 -218.11)"/><path class="cls-61" d="M441.51 278c1.27-.16 2.74-.15 2.52-2.05 0-.35-.63-.93-.92-.9-1.85.15-1.39 1.73-1.6 2.95z" transform="translate(-112.21 -218.11)"/><path class="cls-62" d="M408.26 267.67c1.83-3.17 1.83-3.17.39-5.12-1.28 1.45-2.04 2.87-.39 5.12z" transform="translate(-112.21 -218.11)"/><path class="cls-63" d="M1130.7 690.81c2.23-.93 4.51.27 6.76-.14 0-.63.05-1.27.08-1.9-2.9-.93-5.79-.25-8.68 0a2.57 2.57 0 0 0 1.84 2.04z" transform="translate(-112.21 -218.11)"/><path class="cls-64" d="M1110.17 709.33q0-2.43-1.9-.86l-.06-.09c-2.9 1.27-5.55-1.31-8.41-.53a4.19 4.19 0 0 0-1.8 1.15 1.48 1.48 0 0 0 .12 1.35c4.21 1.65 8.14.47 12.05-1.02z" transform="translate(-112.21 -218.11)"/><path class="cls-65" d="M1119.85 712.2l3-1 2.31-.89-.41-1.08-2.87.92c-1.4.27-3-.31-4.17 1l-3.71.85c-.91 1.55-3.19 2.8-1.09 5z" transform="translate(-112.21 -218.11)"/><path class="cls-66" d="M1092.47 711.25a1.63 1.63 0 0 1 .74-.15c1-.55 2.64-.65 1.92-2.53l-7.78 1.39c1.65 2.16 3.53.99 5.12 1.29z" transform="translate(-112.21 -218.11)"/><path class="cls-67" d="M1096.08 713.56c2 .18 2.77 3.28 5.09 2.06a1.28 1.28 0 0 0 .08-1.21c-1.48-1.41-3.11-2.41-5.17-.85z" transform="translate(-112.21 -218.11)"/><path class="cls-68" d="M1138.41 538.67l1.25-.66a2.38 2.38 0 0 0 1 .58c1.94.21 3-.79 3.65-2.53l.2-.27c3-1.52 6.58-1.85 8.66-4.9l.92-2.93c.86.52 1.39 2 2.75 1.1a2.54 2.54 0 0 0 .93-3 23.74 23.74 0 0 1-.87-7 3.17 3.17 0 0 0-1.52-3.14l-.26-.11v-.47a2.42 2.42 0 0 0 1.87-2.15c1.21-5.52-.91-10.16-3.88-14.57-3.85-1.94-5.61-1.18-6.11 2.76-.14 1.09-.15 2.2-.28 3.29 1.5 2.86.06 6.41 2.11 9.13a2.22 2.22 0 0 0-.36 1.45l-.36-.17a2.05 2.05 0 0 0-.77 2.11l.17.2-.13.1a9 9 0 0 0-.77 1.27l-.08.1a12.05 12.05 0 0 0-6 .11c-1.77 1.76-1.37 4.6-3.11 6.38-2 2.27-5.08 2-7.58 3.07a4.4 4.4 0 0 0-1.12.91c-.18.31-.36.63-.52.94-.92.64-2.07 1.16-1.89 2.4l-.36.19a4.14 4.14 0 0 0-1.79 3.64 2 2 0 0 0 .48.72c-2.83 3.61-2.77 3.69-.9 5.71l1 1.75a3.39 3.39 0 0 0 .06 3.78c.87 1.92 1.81 3.55 3.75.88h.12c1.41-1.66 1-3.63 1-5.53l.27.13a4.22 4.22 0 0 0 2.78-1.94 5.62 5.62 0 0 1 .12-1l1-.38c.29-2.3 2-1.85 3.4-1.91v.13a.71.71 0 0 0 1.17-.17z" transform="translate(-112.21 -218.11)"/><path class="cls-69" d="M1112.28 676.84c3.15.17 5.15-1.17 5.89-4.5-3.16 3.46-6.93 2.09-10.26 1.37-3.54-.77-6.34-.28-8.81 2.3-.48 1.74.06 3.81-1.63 5.18l-1 1.65-1.37 5.92a2.3 2.3 0 0 0-.48 1.86 2.7 2.7 0 0 0 .74 1.08 2.92 2.92 0 0 0 1.91.34c1.85 2-.56 4.19.25 6.24 4.1.82 3.43-2.37 3.87-4.62 1.22.8 2.72-.91 3.89.43l.93 1.76c0 .52 0 1.05.06 1.58.29.05.59.1.89.13a1.38 1.38 0 0 0 .87-.85c.71-.95 1.8-1.64 1.9-3l1.2-.23a1.38 1.38 0 0 0-.12-.78c-3.38-1.7-3.7-4.87-3.93-8.1a1.49 1.49 0 0 0 .55-1c1.15-.62 2.21-1.31 2.43-2.81l-4.08.3-.14-.12-.61-.2a3.74 3.74 0 0 1-4.94 0c.06-1.35-.34-2.79.77-3.93a32.59 32.59 0 0 1 11.22 0zm-11 12v.06a2.12 2.12 0 0 1 .16.21 1.43 1.43 0 0 1-.16-.2v.75a3.47 3.47 0 0 1-.33-.69z" transform="translate(-112.21 -218.11)"/><path class="cls-70" d="M801.36 365.45c0 1.22.37 2.34 1.76 2.45a2.53 2.53 0 0 0 2.87-2.56c.13-1.39-.88-2-2.11-2.12-1.58-.15-2.36.72-2.52 2.23z" transform="translate(-112.21 -218.11)"/><path class="cls-71" d="M182.76 384c-.53 1.37-3.87 3.44.88 3.5q0-1.81.05-3.62-.69-1.19-.93.12z" transform="translate(-112.21 -218.11)"/><path class="cls-72" d="M1075.51 708.49c.78.73 1.7 1.94 2.73 1.05s.55-2.29-.48-3.26l-.45.15a7.13 7.13 0 0 0-2.57-2.18 10.29 10.29 0 0 0-2.31-1.59c-4.21-3.05-8.42 0-12.64 0a3.78 3.78 0 0 0-.63.58 2 2 0 0 0 .28-.82c-1.65-4.65-6-2.79-9.18-3.84-2 1-2.93 2.49-1.77 4.72 8.72 3.22 17.61 5.58 27.02 5.19z" transform="translate(-112.21 -218.11)"/><path class="cls-73" d="M1105.4 609.43a3.88 3.88 0 0 0-4.2-3.12c-2.5 0-2.59 1.91-2.9 3.7-.24 1.43-.65 2.82-1 4.24l-.83 1.95c.25 1.22 0 2.57 1 3.59a23.19 23.19 0 0 0 1.38 3.32c1.38 1.75 2.55 4.21 5.39 2.63 2.65-1.48 1.21-3.68.46-5.55a4.91 4.91 0 0 1 .34-4.2 8.42 8.42 0 0 0 .36-6.56z" transform="translate(-112.21 -218.11)"/><path class="cls-74" d="M1106.25 653.34l2-1 .91-3.42 5.61.69.22 1.82c-.26 2.94 1.4 4.13 4 4 2.24-.13 2-1.51 1-3 3.9-1.51 3.92-4.38 2.71-7.7a3.35 3.35 0 0 1-.05-1c-1.07-.95-2.06-2.12-3.73-1.24l-.17.83c-1.76.43-2.81 1.72-3.8 3.1-2.76-3-4.6.05-6.74 1.05-1.72 1.24-.73 3.55-2 5 .04.33.04.6.04.87z" transform="translate(-112.21 -218.11)"/><path class="cls-75" d="M1064 681.83c1 2.29-.62 6.07 3.08 6.71 2.4.41 4.37 1.66 6.64 2.2 1.17.72 2.31 0 3.46-.06 2.05-.34 3 1.75 4.71 2.15 2.68.61 3.18-1.37 3.8-3.21 2.11-6.09 3.75-12.44 9.4-16.52-3.64-1.95-3.41-5.83-4.52-9l4.89-6c-1.49-1.67-3.59-2.43-4.7-4.34-.6-1-2.39-1.64-2.91-.66-2.35 4.47-7.84 5.6-10.22 9.94l-4.71 4.23c-3.5 0-3.67 4.77-7 5-3.85-1.12-5.67.05-5 3.7.34 2.03.19 4.87 3.08 5.86z" transform="translate(-112.21 -218.11)"/><path class="cls-76" d="M1016.34 620.7c.83 3.66 3 6.76 4.17 10.27a24.62 24.62 0 0 0 1.45 3.27 119 119 0 0 1-1 12.19 3.88 3.88 0 0 0 1.76 3.24c.82.42 1.64.83 2.47 1.23a10.84 10.84 0 0 0 3.06 3.34l.57.4a10.42 10.42 0 0 0 1.76 4.73v.19c-1.91.84-.66 2.19-.46 3.37a1.21 1.21 0 0 0 .63 1.07 6.64 6.64 0 0 1 .89.25c2.83 3.66 6.08 6.75 10.68 8.05 1.28-1.25.47-2.49 0-3.73q0-1.18.07-2.37c-.46-.74-.92-1.47-1.87-1.44-.24-2.44-.13-4.94-1.12-7.27l-4-3-5.78-4.47c0-.14.06-.27.08-.42.21-2.79-1.27-5.07-2.88-6.94-2-2.27-2.37-4.38-1.16-7l-.09-.74c.18-.08.35-.15.54-.25a3.28 3.28 0 0 0 .93-1.16 12.25 12.25 0 0 0 .73-3.67 2 2 0 0 1 .33-.21c.28.45.56.89.83 1.33a4 4 0 0 0 1.21.84 21.4 21.4 0 0 0 3.88 1.09l9.19 8.71.18 2.93a1 1 0 0 0 1.33.17 2.88 2.88 0 0 0 .31-.29c1.77.49 2.63-1.51 4.1-1.83.49-1.3 2.06-2 2.07-3.54 7.82-2.46 9.5-5.18 8.7-14l-1.25-1.06v-1c-.14-4.08-2.57-6.79-5.55-9.12-4.83-3.77-6.86-5.59-7.15-8.39 1-2 1.16-4.53 2.55-6.32a2.68 2.68 0 0 0 1-2.1 1.14 1.14 0 0 0 1.16.35c3.13-1.28 5.68-1 7.91 1.89 1 1.3 2.62.93 3.79-.28 1-1 1.77-2.27 3.13-2.9a10.38 10.38 0 0 0 1.28-.47c1.37-.85 3.08-.77 4.45-1.62a8.13 8.13 0 0 1 4-1.58c6-.81 10-4.63 13.92-8.87 2.19-2.4 2.2-5.7 4-8.21.93-3.1 2.66-5.8 4.11-8.66 1.64-3.25 2.35-6.68.21-10a7.94 7.94 0 0 1-1.21-4.07 10.82 10.82 0 0 1-1-3v-2h-.3v-.81c-1.64-2.79-3.9-5.14-5.38-8.1-.83-1.66-2.21-3.12-4.14-2.84-.92-1.24-1.52-2.41-.29-3.91 1.81-2.22 2.92-5.12 6.25-5.73a2.58 2.58 0 0 0 2.1-2.88c0-1.25-.68-2.49-1.87-2.53-3.2-.1-6.2-3.29-9.65-.36-1.45 1.23-3.09-.09-4.35-1.14-.92-.77-1.75-2.32-.94-2.94 2.83-2.16 3.14-6.47 6.9-7.88.9 1.58.72 3.62 2.33 4.72a3.49 3.49 0 0 0 2.74.87c2.27-1.52 5.37-1.18 7.56-2.86l.23.3c1.81 1.41 1.25 3.46 1.41 5.31.29 3.36 1.84 5 5.38 4a8 8 0 0 0 1.31-1c1.74 1.21 3.08 2.56 1.09 5.21-.09 2.28.76 4.46.52 6.79a3.44 3.44 0 0 0 2.44 3.81 3 3 0 0 0 4-1.89 2.55 2.55 0 0 0 0-.78 1 1 0 0 0 .44-.14c4.46 1.1 5.25-1.28 4.7-4.94a3 3 0 0 0 .74.06l-.53-1.28-1.11-2.75-1-1.39c.07-.06.14-.11.2-.17a.91.91 0 0 0-.17-1.29l-.19.16a4.93 4.93 0 0 0-3.77-5 4.81 4.81 0 0 0-.88-2.36c-.35-.8-.89-1.52-1.28-2.3a4.44 4.44 0 0 0-1-1c-.11-.08-.21-.17-.31-.26 1-2.11 3.08-3.63 3.72-5.94l-.29-.25a5 5 0 0 0 1.37-3.76c0-5.43 1.6-7 7-7.42 4.12-.29 6-2.27 6.42-6.8 1.29-.12 2-1.09 2.52-2.31 4.71-10.69 8.22-21.62 6.81-33.56a5.38 5.38 0 0 0-.31-1.51c-3.14-3-2.3-7.21-3.51-10.8l.08.13a11.06 11.06 0 0 0 3 2.64 6.93 6.93 0 0 0 .79.34c-.59 3.74 1.4 10.3 4 12.86a3.3 3.3 0 0 0-.46.66c-.46 2.55 1.25 4.84.89 7.38a5.38 5.38 0 0 0 .39 1.35c.86 1.89 1.41 3.93 3 5.43l.65.24c.64.19 1.54 1.43 1.89.27 1-3.47 2.45-1.86 3.95-.5a6.28 6.28 0 0 0 .7 0c1.73-1.82-.82-2.51-1-3.82a7.31 7.31 0 0 0-2.87-2.63c-3.75-2.33-2.12-6.6-3.52-9.78a2.26 2.26 0 0 0 0-.89l1.31-.74c1 0 2.24 0 1.41-1.63-3.75-7.23-9.1-13.58-11.75-21.42.22-2.37-1.46-3.57-3-4.86l-1-2.88c-1.28 0-2.86-.37-2 1.88.43.46.71 1.18 1.39 1.2-.71.78-1.66 1.4-1.92 2.49a21.19 21.19 0 0 0-6.75-4.77 7.41 7.41 0 0 0-4.78.36c-1 .73-2 1.46-3 2.12a7.47 7.47 0 0 0-1 .56c-.93-1.29-2.51-2.22-2.37-4.1.75 0 1.63.27 2-.62a1.25 1.25 0 0 0-.38-1.16 1.89 1.89 0 0 0-2.7.95l-.43.43-.15-.14c-1.86-1.78-.4-3.59-.05-5.38 1.14-5.88 4-11.27 5-17.19 1.5-9.07 2.05-9.73 10.85-11.6l.39-.56a2.72 2.72 0 0 1 .78-1.46q1-.28 1.94-.63c1.4-.05 2.93.27 3.58-.84a8 8 0 0 1 1-1.33 9.83 9.83 0 0 1 8.89-.92 10.39 10.39 0 0 0 2.34.84c-.52.9-.32 1.45 1.84 1.13 1.94-.29 2.9-2.55 5-2.4a7.62 7.62 0 0 0 .21.85l.32-.06h.33c-.48-1.2 4.3-3.1-.49-3.73a3.15 3.15 0 0 1-2.14-2.44c0-.29 0-.58.08-.86a1.63 1.63 0 0 1 0-.16 17.77 17.77 0 0 0 1-5.26 15.16 15.16 0 0 0 .27-4c-.05-.19-.07-.36-.11-.54s0-.25 0-.38c.87-1 1.08-2.43 1.61-3.65a6.83 6.83 0 0 1 7.76-.85c.67.82 1.25 1.49 1.76 2a4.47 4.47 0 0 0 3.36 2.24c1.38.24 1.49-.9 1.69-1.93.39-.38.82-.83 1.31-1.36a9 9 0 0 1 1-3.29 2.34 2.34 0 0 1 1.82-.82 7 7 0 0 1 0 1c.09 1.12.7 2.21.3 3.36-2.05 5.85-1.46 12.05-2 18.06-.38 4-1.06 7.2-3.92 9.9a1.16 1.16 0 0 1 .18.6c2.65 1 2.84 3 1.93 5.14-1.26 3-.51 5.64.33 8.48a44.16 44.16 0 0 0 5.22 10.94c3.43 5.47 7 10.87 10.36 16.37.82 1.33.93 3.7 2.9 3.31s2.14-2.61 2.48-4.37c.57-2.93-1.81-5.62-.72-8.59 2.63-.7 3.34-1.88 1-3.86-.31-2.55-1.24-5.68 1.46-7.09 4-2.07 2-3.55.37-5.79s-3.8-5.08-.3-7.8c.65.34 1.34.2 1.37-.51a1.67 1.67 0 0 0-1.52-1.94c-.11-2.72-4.32-3-3.64-6.22.86-3.74-.54-4.61-3.86-3-2.11-.8-2.07-2.75-2.15-4.45-.14-2.75-.07-5.5-1-8.16-.92-2.14-.88-4 1.5-5.18l.22-.31 1.12.58 1.27-3.68h1.64c0 .79 0 2 .81 2 1.36 0 1.1-1.24 1.1-2.18 3.12-4.82 4.28-5.14 9.11-2.28 1.13.67 2.18 1.29 3.53 1-1.56-10.11 2.2-18.51 8.37-26.15 1.95-.75 5.08 1.58 5.9-1.42.86-3.16-1.71-5.43-4.18-6.84a14.53 14.53 0 0 1-5.26-5.27l-.5-1.32c-.8-1.81-4.5-1.68-3.25-4.86 2.26-6.95 1.69-9.12-3.72-13.57-1.3-1.07-2-2.25-.88-3.69 1.67-2.14 1.81.52 2.6 1a7.46 7.46 0 0 0 4 1.41c.72-2.49 1.23-5.27 5-3.69 1.93 3.19 4.44 2.54 7.06 1a2 2 0 0 0 2.78-.06c1.08 0 1.85-.33 1.76-1.59-.12-1.59-1.38-1.91-2.61-2.26a.71.71 0 0 0-.3-.4c.4-2.48-.08-4.56-2.62-5.69-.56-.88-1.22-1.73-1-2.88 2.16-1.34 3.27-2.88 1-5.12.58-3.18-1-4.59-4-4.83l-5.92-1.75c-.93 2.28-4 2.51-4.79 4.9l-2.87-1c-1.62-.55-3.16-2.45-5-.33-1.6-2.14-4-1.57-6.17-1.84-4.15-.52-8.43-.52-12.45-1.54-7.51-1.9-14.85-3.64-22.39-.19a9.26 9.26 0 0 1-6.21.78c-3.51 3.07-.15 4.41 1.58 6.07 2 1.87 5.16 3.19 3.71 6.37-2.49-2.47-5.82-3.59-8.76-5.32a11.9 11.9 0 0 1-.95-1.2c0-1.7-1.09-2.54-4.3-1.6l.37.92-.13.11c-.36 3.13-1.83 4.7-5.25 4.78-1.51 0-3.38-.14-4.81 1h.06-.08a20.6 20.6 0 0 0-4.29 2.17c-3.88 2.84-7 2.22-9.27-1.81a6 6 0 0 0-2.25-2.49l-.94-1c-5.55-3.07-11.19-2.14-15.77 1.32s-7.87 3.83-11.65-.34c-3.21 1.54-7.76 1.12-8.54-1.3-2.32-7.22-6.13-4.46-10.18-2.68l-3 .37c-2.55-.46-5.08-.71-7.54.43-2.54 1.05-7.21-2.32-7.41 3.58-1.17.41-2.6.63-2.43 2.34.1 1 .73 1.3 1.65.77.89 2.68 7 5.67-.45 7.88l-4.8.75-3.31.74c-1.46 2.66-4.14 1.5-6.29 2l-.37.23c-.45-.42-1-.71-1.42-.36-.85.69-.48 1.34 0 2a3.32 3.32 0 0 0-.26.94c.52 1.89.25 3.95 1 5.79-5.48-.41-9-5.23-14-6.69l-.15-1.5c.9.24 2.22.76 2.26-.63 0-1.86-1.41-2.73-3.19-2.94a2.13 2.13 0 0 0-.31-.87L1010 289c-2.84-1.35-5.28-5.07-8.93-1.48-1.55-.46-3.11-1.28-4.66-1.28-1.93 0-4.06.44-3.45 3.41.28 1.34 2.57 2.87 0 4.06s-5 3.53-8 1l-1.25.12a4.79 4.79 0 0 1-2.78.65l-.83-.34c-.74-.54-1.11-1.67-1.15-3.31l-10.83 1.93c-2.9 2.64-6.28 2.83-9.77 1.69-2.31-.75-4.31-1.53-3.86 2.23l.73 1.9c-1.4 2.5-2.79 5-6.16 5.18l-.8-1c3.13-7.6 4.23-15.79 6.77-23.56l-2.86-3.2a2.51 2.51 0 0 0-.06-.94c-3.51-4.42-8.55-6.51-13.45-8.81h-.08c-1.16 1-2.67 1.16-3.95 1.84l-2.15 1.45c-2.45 1.18-1.53-2-2.86-2.24a4.93 4.93 0 0 0-1.86-.35c-2.58.6-5.28 2.29-5.64-2.61-.13-1.79-2.78-1.88-4.56-2s-2.67 1.11-3 2.6c-.91 3.86-1.48 7.73 1.67 11v3l-2.06.13-.56 1.74-.36 1-1.19 1c-1.59 1.21-2.7 4.84-5.24.62-.5-.83-3.46 1.07-5.19 3-.79.1-1.14.89-1.25 2.09-.89 1.92-2.92 2.49-4.37 3.73-4.4 3.76-9 7.46-9.17 14l2.78.94 2.08 1.14c.66.88 1.47 1.71.95 3l-1.91.2c-2.53 2.22-5.68 3-8.8 4-2.87.83-3.22 2.15-2.11 5.06 1.68 4.4 5.71 5.73 8.85 8.27.3 2.5-1.47 2.09-2.89 2.18l-.58-.22c-2.85-1.85-5.66-3.83-9.4-2.78-.07-1.2-.81-1.67-1.91-1.75-.78 1.21-1.44 2.43 0 3.65l-2 1.11v1l.25.25-.25-.26-2.81-1-1.27-2.04c-.21 1.73 0 3.31-.73 4.79a7.87 7.87 0 0 1-.83.09c-1.17 3.15-1.5 6.18 1.22 8.79a6.25 6.25 0 0 1 .49.53 2.2 2.2 0 0 0-.46-.36c-4.32-2.53-5-6.68-5.61-10.94a9.89 9.89 0 0 0-1.25-2.59c-1.79-2-4.22-2.23-6.68-1.89-1.28.18-2.85.81-2.65 2.34 0 .32.07.64.09 1a2.63 2.63 0 0 0-.42 2.09 15.88 15.88 0 0 1 .29 2.3c-.25 2.21-.73 4.4-1.14 6.59l-.06.15a3.3 3.3 0 0 0-.22 1.44c-.16 1-.29 2-.36 3a14.24 14.24 0 0 1 1.92 5.4 8 8 0 0 0 5.07 7.06l.18.15c-4-1.77-8.55-1.73-12.55-3.55-2.56-.11-5.28-1.19-7.66 0a11.68 11.68 0 0 1-6.7-4.13c-2.41 1.2-2.09 2.63-.16 3.9 1.54 1 3.18 1.87 4.8 2.75a1.53 1.53 0 0 0 .16.85c2 3.61.93 4.76-3 3.69a2.07 2.07 0 0 0-1.37.32l-.95.53h-1.51c-2.17.51-5 2.13-6.4 1.32-3.91-2.2-6.37.16-9.26 1.63l-1.39 1.46a10.91 10.91 0 0 0-1.66.5 3 3 0 0 0-1.02.79 3.59 3.59 0 0 1-.29 1.12l-1.52.92-1.91 1c-1.83.67-2.34 2.33-2.94 3.93-.78.94-1.35 2.69-2.87 1.85-1.68-.93-.51-2.56-.24-3.9h.09c-.14-4.3-1.87-6.09-5.59-5.75-4.37.4-3.11 3.07-2.33 5.65.37 1.24.08 2.6.27 3.9a3.75 3.75 0 0 0 .58 1.3l.08.1-.08.08c-.15.19-.07.42.24.69.74 1.66.43 2.88-1.59 2.84-1.57 0-4 1.52-4.21-1.85 1-1.69 0-2.52-1.39-3.19h-.09l-.22-.18a1.28 1.28 0 0 0-.32-1.55c-2.28-3.52-6.71-3.64-9.66-6.2-3.63-3.16-7.86-5.09-12.87-4.62-4.19-1.36-9-1.79-10.8-6.86-3.83-1.21-7.46-3.63-11.77-2-3.05-.79-6.14-1.85-8.75 1l-.09-.08q-.61.42-1.24.79c-.43.25-.85.51-1.27.78a14.53 14.53 0 0 1-3.31 1.43c-1.8 2.93-5.25 2.57-7.85 3.92a16.1 16.1 0 0 0-1.85 1.71 15.37 15.37 0 0 0-3 2.87 6.81 6.81 0 0 1-2.93 1.25 5.11 5.11 0 0 0-2.56 6.61 9.18 9.18 0 0 1 .37 1.63 5.7 5.7 0 0 0-.14 2.44 5.6 5.6 0 0 1-2.58 3.1 2 2 0 0 0-.34 2.69 2.61 2.61 0 0 0 .29.2l-.59.3c-3.15 3.23-2.27 8.63-6.16 11.46-.7.88-1.86 1.29-2.39 2.34-1.88 4.65-6 7.12-9.68 10-5.72 3.8-7 6.34-5.09 11.57a24.4 24.4 0 0 1 1.29 9.71c-.16 5.3 3.81 8.19 8.93 6.72a17.44 17.44 0 0 0 7.81-4.29c-.21 2.35 1.27 4.49 2 6.73a6.75 6.75 0 0 0 3.29 2.89l.06.19a6.69 6.69 0 0 0 .38 1.38l1 1.62-.07 1.49a5 5 0 0 0-3.38 1.5 3.11 3.11 0 0 1-1.1-.09 2.63 2.63 0 0 0-.58.14c0-.19.07-.37.12-.55 2.19-2.6.66-5.19-.17-7.71a2.72 2.72 0 0 0-3.44-1.89c-4.87 1.13-7.23 6.56-5 11.38v.06h-.39c-.93 1.35-.5 2.6.29 3.81a3.6 3.6 0 0 1 .55 1.42 10.8 10.8 0 0 1-1.94 2.26l-.57.21c-3.82 1.74-9 1.41-10.72 6.42-1.31 3.89-4 5.65-7.74 6.44-.86-1.45-.25-2.77.32-4.13.77-1.85.6-3.48-1.35-4.54-.72-1.12-2.05-.62-3-1.14l-.08-1c1.51-1.75.6-2.92-.94-3.94-2.51-3.59-6.32-6.92-6.3-11.3 0-3.58-.52-5.91-3-8.53-1.53-1.65-2-4.4-5-3s-7.59 2.91-6.57 6.75c1.51 5.69.84 9-5.21 10.32-.2 0-.3.55-.45.84l-3 2.94c-2.21.49-3 1.77-3.06 4.11 0 1.9 1.26 3.78.12 5.67-1.84 3.71-.88 6 2.72 6.68 1.34.24 2.56-.35 3.86-.4 1.54-1.28 3.56-1.22 5.29-1.92 2.81-1.14 5-2.72 3-6.06 2 .09 2.38-1.65 2.53-3a6.06 6.06 0 0 1 2.6-4.36 3.14 3.14 0 0 0 .18-.46l1.38.64 2 1.84-.11.4h-1.81l.47 1a6.16 6.16 0 0 0-2.48 1.71l-1.12 1.34c-1.23.94-.85 1.86 0 2.77l.23.2-.1.08a3.25 3.25 0 0 0-.58 1.39v.89c-.95.36-1.84.77-1.49 2.35l1.69-.07c.71 1.77-.92 3.2-.92 4.86l-2.73 1.87c-.88 2.15.82 1.79 1.94 2l1 1a5.42 5.42 0 0 0 3.06.45 13 13 0 0 1 2.59-.9c1.11-.57 2.14-1.25 3.16-1.66a5.64 5.64 0 0 1-3.16 1.66 8.34 8.34 0 0 1-2.59.9 4.29 4.29 0 0 0-2.13 2.41c0 .31-.05.63-.07.95-1.34 2-.82 4 .13 5.95a2.24 2.24 0 0 0 2.08.53 3.89 3.89 0 0 0 1.82.51c5.78 4.64 7 7.84 4.91 12.69-.83 3.66-3.81 3.15-6.19 2.75-5.43-.91-10.87-.72-16.32-.86-2.49 2.24-3.48 4.87-2.42 8.21.91 2.88.31 5.72-.62 8.5-.26 1.33-1 2.72-.27 3.93l-1.61.1v.91l1.9 3.95c-1.82 2.1-1.21 3.68 1.06 4.89l3.95.9a4.82 4.82 0 0 1 5 4l-.1 2.89.09.68a3.59 3.59 0 0 1-.54.71 4.88 4.88 0 0 1-3.24 3.39 13 13 0 0 0-8.5 11.05c-.66 6.57-4.24 9.74-9.79 11.84-2 .76-3 2.08-1.78 4-2.81 2.38-5.46 4.87-6.27 8.71l-.33 1.7c-4.34 1.5-4.08 6.56-7 9.13-.43 1.22-1.44 2.33-.71 3.77l.91 1a1.34 1.34 0 0 0 .88.51v.52c-.77 4.41-.17 9-1.29 13.35A4.92 4.92 0 0 0 607 616c-1.07 3.21-3.53 6.16-1.73 9.9.71.74-.1 1.49 0 2.24a5 5 0 0 1-.06.76c-.76 1.29.23 2 .91 2.86h.24v2.07h5.61a31.17 31.17 0 0 0 8 7.77l.12 2.86 1 .95c0 .36.06.72.09 1.08.81 3.45 3.43 4.77 6.51 5.56l1 .48c.29 1.73 1.71 2.26 3 2.9 1.13 2 3.22 2.77 5 3.86 1.74 1.51 3.58 1.06 5.37.17 4.81-2.39 9.83-2.51 15-1.55 4.24 1.74 7.55-.45 10.88-2.57 4.81-1.37 9.62-2.85 14.65-1l1.05 2 1.41 2.66c2.92 3.85 6.36 2 9.7 1.12a2.82 2.82 0 0 0 1.86 2.12c3.12 1.18 4.08 3.47 3.63 6.57v.09c-.42.13-.66.67-.94 1.11l-.27 2h1.21c-3.39 8.47-.73 14.87 6.72 19.62l.93 1.1a1.88 1.88 0 0 0 .42.84l.37 1.83 1.59 1a5.17 5.17 0 0 0 1.71 5.63c.7 4.64.63 9.4 2.4 13.88a5.79 5.79 0 0 1-1.5 6.7c-4.52 4.4-5.43 10.09-5.64 16-.71 2.39.2 4.22 1.45 6.32 3 5 6.2 10.12 7 15.91 1.25 9.09 2.41 18 9 25.13a1.62 1.62 0 0 1 .1-.52c.1 0 .19 0 .29.07l-.39.45c.63 5.21 3.28 9.87 3.19 15.43-.07 4.39 3.5 5.69 8 4.79 3.63-.72 7.18-2.22 11-1.83 6 .61 11.13-1.54 15.88-4.94 6.62-4.73 10.4-12 15.91-17.78a7.4 7.4 0 0 0 1.73-6.43q1.31-3 2.63-6c3.46-.55 5.78-2.61 7.44-5.56a9.94 9.94 0 0 0-.83-9.9l-.34-1 .88-4.4 6.49-5.12a4.06 4.06 0 0 0 3.23-2.53l1.37-1.33c7.17-2 9.78-5.3 9.79-12.31 0-3.07 0-6.14.14-9.21.08-2.09-.33-3.85-2.29-5-.94-3.79-.62-7.93-1.71-11.48-1.25-4.08.18-6.59 1.7-9.92 1.84-4 5.58-6.28 7.65-9.93a1.75 1.75 0 0 0 .42-.81c5.05-3.8 8.41-9.65 14.62-12l2-1.71a1 1 0 0 0-.06-1.37l.3-.56a4.66 4.66 0 0 0 .91-.2 3.6 3.6 0 0 0 1.14-.76 12.39 12.39 0 0 0 1.87-1.6 2.6 2.6 0 0 1 .79-.25l2.69-4.19 1.13.07 4-8.76a.8.8 0 0 0 .14-.93 2.94 2.94 0 0 1 .33-.28c.93-2.09 2.81-3.59 3.53-5.82.9-2.79 2.46-5.79.6-8.42-2.07-2.93-5.1-.51-7.7-.34-6.79.46-13.24 4.2-20.29 2.24a1.15 1.15 0 0 0 .1-.39 1 1 0 0 0-.3-.82c-.3-2.16.8-3 2.13-3.55a26.05 26.05 0 0 0 3.71-.74c3.47-1.25 7.16-1.83 10.5-3.48 1.54-.76 3.52-1 3.54-3.38a4.23 4.23 0 0 0-.14-.43l-.14-.2v-.08a2.91 2.91 0 0 1 .19.35 2.33 2.33 0 0 0 .49.5c3.56.6 6.54-1 9.51-2.55a70.93 70.93 0 0 1 5.22-6.17c4.31-.52 7.07-3.63 10-6.39 2.3.52 3.52-1.56 5.32-2.24.84-2.16 1.28-4.3 3-6.26 4.81-5.39 4.58-5.83-.62-11.27l-.1.1-6.53-1.2-3.12-4.88.15-1.06c-.35-1.2.8-3.06-1-3.47-.78-.17-.8 1.45-1 2.33l-3.74 3.23-1.07 2.82-2.86 1.14c-2.49-1.05-5.38-.63-7.74-2.13l-1-3.95.92-.9a2.4 2.4 0 0 0-2.07-1.89c-.19.72-.39 1.44-.59 2.16l-2.35-1.37a8.33 8.33 0 0 0-4.65-7l-2.18-3.86a4.1 4.1 0 0 0-1.25-2.92c.25-.87.51-1.74.77-2.62a9.79 9.79 0 0 1 2.11-.18 8.33 8.33 0 0 1 4.81 3.4c2.17 3.37 5.23 5.67 8.33 8a4.51 4.51 0 0 0 2 1 12.74 12.74 0 0 0 2.77.68 5.53 5.53 0 0 0 3.66.39 15.62 15.62 0 0 1 3 .57c2.23-.4 3.47 1.19 5.06 2.29 5.08 3.53 10.76 3.92 16.65 2.79a1.89 1.89 0 0 0 .94 1.44 8.24 8.24 0 0 0 3.88.42c5.64-.65 11.54-2.74 15.68 3.6a2.4 2.4 0 0 0 3.6.59c.17 2.78 3.14 3.7 4.08 6.11 2.45 6.28 4.55 7 10.77 4.56 2.46 0 1.54 2 1.88 3.24.08 2.09-.07 4.17.62 6.25 4.2 12.64 10.61 24.3 16.11 36.37 1.56 3.42 4.26 3.85 7.09 1.44 2.08-1.77 4.11-3.67 5.21-6.29v-.13c.91-.37 1.18-1.55 1.29-2.79.81-8.48 2-16.83 7.39-23.87 1.19-1.08 2.42-2.13 3.58-3.25 5.62-5.42 9.82-12.71 17.5-15.43a8.43 8.43 0 0 0 3.65.44c1.83-.88 3.76-.34 5.64-.39-.54 2.28.73 3.94 2.12 5.42 4.29 4.56 8.33 9.18 7.89 16.08-.05.79.7 1.42 1.34 1.94 2.1.91 4.05.36 6.09-.35 2.81-.81 4.85.09 5.53 3.1zM874.87 375.23a7.89 7.89 0 0 0 1.16-1.79c.8-2 .74-4.15 1.34-6.15 0-.35.07-.7.11-1.05a8.88 8.88 0 0 0-.51-4.36 9.86 9.86 0 0 0 1.62 1.52c0 .14 0 .28.05.41v.14a9 9 0 0 0-1.13 2.81c-.07.17-.12.35-.18.53a18.06 18.06 0 0 1-1.34 6.15 6.45 6.45 0 0 1-1.14 1.87c-.03.07.15-.16.02-.08zM774.63 513.18c-2.76 1.21-5.41 2.66-8.1 4a5.72 5.72 0 0 1-5.42-3 5.43 5.43 0 0 1 0-4.86l1-2c.69-1.42 1.37-2.85-.27-4l.67-.68a4 4 0 0 0 .71-1.19 3.82 3.82 0 0 0 .89-1.78c1.69.78 2-1.25 2.6-2.25 1.8-2.91 3.94-3.52 6.72-1.39l.46.15-.06.43 1.43 1a4.58 4.58 0 0 1-.25.87c2.68 5.64 3 5.84 6.7 3.12 0 .05.05.1.09.16a1.58 1.58 0 0 0 1.9-.28 6.66 6.66 0 0 1 6.38 0 9.47 9.47 0 0 0 2.25 1.79 52.67 52.67 0 0 1 12.85 10.27 5.58 5.58 0 0 1-.38 1.56 11 11 0 0 0-3.05.42 23.23 23.23 0 0 1-12.36-1.83c-4.74-2.02-9.77-2.64-14.76-.51zm72.86 21.42c-4.36 1-9.84-2.33-11.92-6.69a6 6 0 0 0 .65-3.68c1.63-4.2-.86-7.31-2.78-10.57a2.87 2.87 0 0 0-1.82-.71c0-3.54-2.61-6.07-4-9-1.68-3.62-1.52-6 1.63-8.3l.05-.14c2.49.65 4.72-2.68 7.36-1.7-4.72 7.62-4.58 9.16 1.38 15.77a12.74 12.74 0 0 1 2.45 3.58 4 4 0 0 0 2.43 2.5c1.5 5.4 5 9.82 7.47 14.72a3.87 3.87 0 0 1-2.91 4.22zm-65-36.71l-.67-2.74c1-.19 1.93-.41 2.9-.63a3.22 3.22 0 0 0 1.66-1.52c2.38 1 3.86-1 5.64-2-1.76 1.07-2.43 2.92-2.93 4.89-2.33-.3-4.45.94-6.58 1.99zm-40.6 18.71l-.27-.1a3.59 3.59 0 0 0 .44-.11c-.14-.26 0-.3.11-.27l.12.21-.18.06c.01.1-.05.18-.2.21zm20.17-109.23v.05-.06zm36.2 154h.07-.09zm1.08-.08zM795 439.08zm-2.83 51.78l.39-.18c-.11.06-.25.12-.37.18zm-11.48-96.81a1.6 1.6 0 0 1-1.49-.6 5.52 5.52 0 0 0-.59-.59c-.77-.36-1.52-.79-2.27-1.11a13.72 13.72 0 0 0-3.9.11 3.83 3.83 0 0 1 3.9-.11 4.68 4.68 0 0 1 2.27 1.11 7.62 7.62 0 0 0 1.85.63 3.2 3.2 0 0 0 .25.57zM738.55 772zm-72.63-137.27zm419.27-84.36zm-375.13-99.63l.82-.38a8.38 8.38 0 0 0 5.25-3.47 6.44 6.44 0 0 0 1.29-5.12 11.75 11.75 0 0 1 .49-5.27 6.21 6.21 0 0 1 1.39-2c4.56-4.74 4.61-5.83.09-10.72a5.71 5.71 0 0 1-1.39-3.48 15.49 15.49 0 0 1 2.92-11l4.84-5.89a2.87 2.87 0 0 0 .52.24c.66-.12 1.49-.4 1.5-1 .06-4.34 2.38-7.33 5.48-9.87.23 1 1.25 1.49 1.49 2.44a5.75 5.75 0 0 0 .19 1.21c.53 2.55-.92 4.53-2.46 6.08-5 5-6 10.7-4.32 17.4.87 3.4 5.93 9.21 9.22 8.29 4.63-1.3 9.92-1 13.91-4.27a7.53 7.53 0 0 1 .38 4.68c-4.92-1.21-9.82-2.34-14.06 1.92a6.24 6.24 0 0 0-.21.64c-2.6 1.84-6.26 3.14-3.7 7.6-3.87 4.93-4.8 9.15-2.81 12.52a2.74 2.74 0 0 0 .31.77l.16.13a4.3 4.3 0 0 1-4.74.87c-7.14-2.69-12.49 1-17.8 4.89a8.3 8.3 0 0 0-5.48-1.58l1-1.93c.66-3.05 4.77-.99 5.72-3.7zm-57.73 88.9c2 0 4 .4 5.81-.9 5.36-2.67 10.64-5.3 9.42-12.91-.29-1.8 1.16-3.47 2.81-4.28a14.37 14.37 0 0 0 8-9.24c.38-1.32 1.42-2.3 2.44-1.76 5.75 3 9-1 12.6-4.18 1-1 2.47 0 3.54-.69a1.26 1.26 0 0 0 .11.26c1.23 1 1.15 3.12 3 3.69.65.06.47.48.44.79 1 4.69 4.36 6.79 8.71 7.78l1.95 1.12 1.18-.16c0 .09-.06.18-.09.28.21 1.38.71 2.3 2.09 1.92a2.88 2.88 0 0 0-.49 1.37c1.13 3.17 2.19 6.09-3.06 6.5a4.15 4.15 0 0 0-3.82 4.25c.27 2.08 1.68 2.87 3.56 3.11.42-.24.84-.47 1.26-.69 2.08.7 4.25 2.13 5.86-.58l.31.14c1.59-.44 2.5-1.87 3.85-2.66l.14-1.88-.2-.23c1.76-2.65.78-5.69 1.21-8.53.9-.23 2.16.16 2.57-.91.34-.9-.62-1.43-1.3-1.82-1.41-.81-2.88-1.52-4.32-2.27-2.51-2.74-7-3.46-7.9-7.83-2.34-2.31-5.45-4.22-4.93-8.06l.08-.1c2.58 3.58 6.28 6 9.44 9 2 .05 4.08 1.72 6.13.82l.17.19a11.09 11.09 0 0 0 3.5 2.09c-.31 1.58.87 2.84 1.63 4.19.68.53 1.33 1.12 2.21 1 0 .21.08.42.11.63a3.07 3.07 0 0 0 2.08 2.23l.35.05.07.67c-.42 2.57 1.84 3.92 2.69 5.91l-2.8.13q.1 1.85.21 3.71h2.51c.35 1.63 1 2.89 3 2.16 3.74 4.81 3.74 4.81 7.56-.22.46-.6 1-1.15 1.47-1.72l1.23-.37a3.79 3.79 0 0 0 .52 0c1.23-1.19 1.12-2.39 0-3.59l-3.52.12a4.14 4.14 0 0 0-.6-.25l-.87-2.72.29-1.09c3.33-.6 5.39-4.34 9.11-4-2.45 3.73-2.1 8.81 1 13.15l1 .35c-.14 1 .29 1.65 2.06 1.37l.07.24c5.2 7.74 13.8 3.57 20.57 5.83a5.45 5.45 0 0 0 4.7-.52c.55-.35-.14.08.39-.29 2.42-1.66 4.47-1.45 6.18.65-2 1-.6 2.88-.52 4.43a7.5 7.5 0 0 1 .75 1.25l-.76 1a2.3 2.3 0 0 0-.58 1.12c0 .53 0 1.06.06 1.59a7.18 7.18 0 0 1-1.06.44 2.67 2.67 0 0 0-.69 1.93c.07.14.13.29.19.44-1.89 1.49-2.1 3.93-2.8 6.09v.13l-1.56.14c-3.4.33-6.71-2.53-9.9-1.07-5.11 2.34-9.74.16-14.57-.46-1.73-.23-3.38-1.2-5.2-.57-.06.08-.1.17-.16.25l-9.31-4c-2.3-1.76-4.59-.49-6.89 0-2.87 2.3-1.2 6.14-3 8.82a3.28 3.28 0 0 1-2.62.58s0-.08.06-.13c-.53-2.32-2.67-2.56-4.35-3.42-1.86-1-4.22-.49-5.82-2.13-1.88-3.32-5.06-4.33-8.55-4.8-1.75-.23-3.61.07-5.16-1.1a2.36 2.36 0 0 0-2.87-.27c0 .16 0 .3-.06.45l-2.35-.8-.55-1.25.22-.31a2.8 2.8 0 0 1 1.59-2.81 5.22 5.22 0 0 0 1.6-4c-.21-1.68-.12-3.37-.37-5a5 5 0 0 0-4.76-3.12c-1.58 0-3.17 0-4.29.92-4.9-.16-9.8.86-14.71.74a24.77 24.77 0 0 0-11.71 2.74c-5.62 3-11.13 5.07-17.54 4-3.21-2.15-.38-2.38.95-3.07zm162.6 84.51l-4.69-3a2.7 2.7 0 0 0-1.31-2.33c-.56-.27-1.11-.54-1.67-.78l-.22-.57a.88.88 0 0 0 .17-1.29c-1.59-1.77-1.31-4.81-4-5.86a13.81 13.81 0 0 1-4.5-8.65c-.36-2.77-1.14-5.66-3.3-7.82-1.79-1.21-3.6-2.41-2.69-5.06 1.1-2.49.26-4.06-2.29-4.82-2.79-2.41-3.78-5.83-5.13-9a3.39 3.39 0 0 1 2.61-2.19 7.33 7.33 0 0 1 .42.92c5.17 8.28 12.74 15.09 15.2 25a3.58 3.58 0 0 0 1.26 2.05c4.77 3.39 6.79 9 10.59 13.16a9.2 9.2 0 0 0 2.59 2.48c-2.51 3.18.2 6.13 1.38 9.14l.23.61c-1.74.49-2.94-2.14-4.65-1.99zM872 355.27c1.32 2.43 3.13 3.18 5.63 1.74a11.94 11.94 0 0 1 1.32-.58l.7-.46.36.14a8.93 8.93 0 0 0-1.06.32c-2.18 1.49-3.06 2.79-2.69 4.16a6.09 6.09 0 0 0-4.82-2.49l-.28-.51a7.81 7.81 0 0 0 .1-3.74q.36.71.74 1.42zm10.17 207.83v.77a1.33 1.33 0 0 0-.7.35 4.1 4.1 0 0 1 .48-.77zm8-255.17l-.51.2a1.08 1.08 0 0 1 .48-.21zm-22.39 40.3c.84-1.26 1.13-2.8.39-3.81a7 7 0 0 1 1.27 3.59 13.49 13.49 0 0 0 .73 3.22 8.76 8.76 0 0 0-2.89-2.68 3.6 3.6 0 0 0 .47-.33z" transform="translate(-112.21 -218.11)"/><path class="cls-77" d="M784.51 543.53c-2.27-1.43-4.2-1-5.8 1.09 2.29 1.69 4.18.96 5.8-1.09z" transform="translate(-112.21 -218.11)"/><path class="cls-78" d="M763.1 539.71a1.27 1.27 0 0 0-2 0c0 .63 0 1.27.06 1.9z" transform="translate(-112.21 -218.11)"/><path class="cls-79" d="M623.82 285.91a3.41 3.41 0 0 0-1.89 2.82c1.49-.36 1.93-1.44 1.89-2.82z" transform="translate(-112.21 -218.11)"/><path class="cls-80" d="M595.17 370.94a10 10 0 0 0 2.58-1.27 16.11 16.11 0 0 0 7.28-8c2.25-1.79 2.71-4.6 1.74-7.31-.34-.95-.6-1.93-.9-2.9-.11-.65-.24-1.31-.39-2s-.21-1.29-.32-1.93q.06-1 .11-2c2.47-1.68 2-5 3.95-7l1.94-.84 1.94-1.93L618 326c2.64-.74 1-2.53 1-3.92a9 9 0 0 0-3.66-3.27l-1.34-2.56c-.05-2.05-1.89-3.81-1-6l4 .12c4.13.43 3.66-3.14 2.2-4-2.79-1.67-2.06-3.85-2.39-6 0-.8 0-1.61.05-2.41 1.59-1.55 2.05-3.54 2.32-5.64v-.27a20.78 20.78 0 0 0 1.18-4.74 21.68 21.68 0 0 1 3.6-6.3c1-.78 2.07-1.53.92-3 0-.36 0-.71.05-1.07 2.31-.26 3.88-1.24 3.78-3.86l1.81-1.21 2.36-1.76c0-2 1.85-2 3-2.88 3.54-2.72 3.28-5.93-.7-8-2.12-1.08-5-1.89-6.54-.5-2.63 2.43-6.3 2.22-8.8 4.49-1.93-1-.52-2.73-.9-4.06.26-1.39 1-2.89-.5-4-.85-.63-2.18-.57-2.55.36-1.68 4.18-5.45 2.35-8.31 3.1v-1.32c2.44-.05 3.67-1.23 3.46-3.74l.11-1.19c3.84-1.22 8.15-.71 11.67-3.15.19-1.61.2-3.13-1.88-3.55l-2.74-1.16-3.85-2.92c1.26-3.41-1.11-2.78-3-2.69l-.28-2c1.27-1.88-.13-2.8-1.49-3.24-4.87-1.59-9.56-3.94-14.84-3.9-2.2 0-4.6-.25-6.1 2-1.37-.18-2.51 2.9-4 .28-.85.62-1.15 2.68-2.29 2-4.34-2.5-7.57.54-11.18 1.79l2.67 3.61c-3.57 1.45-7.46 2.67-5.55 7.94-.19 1.44-.21 2.92-1.16 4.14-1.09-1.25-1.25-3.14-2.85-4-.92-2.54-.73-6-4.87-5.84-.16 1.59-.37 3.17-.48 4.76-.2 3-1.63 4.39-4.71 3.7 1-2.83-.12-5.7.18-8.54l-1-.09c-2.09-1.91-4.36-2.36-6.86-.8-4.25.27-7.69.17-8.72-5.6-.47-2.62-1.22-7.19-6-7.25-4.74-5.21-11-7.06-17.66-7.89l-1-1.82-1.88-.11c-2.72.57-5.13 1.47-8.29 1.12-2.81-.31-7.62-.7-9.42 3.76-1.41 1.18-2.88 2.14-4.8 1.12-1-.66-2-1.21-3.09-.22-2.62 2-5.3 3.08-8.83 2.24a8.26 8.26 0 0 0-7.79 1.79l-2 1.15v1.84l1.8.06.14 1.8a1.58 1.58 0 0 0-1 1.15c0 .32 0 .64-.06 1-.17 2-1.58 3.93 0 5.9a5.66 5.66 0 0 1 .17.88 3 3 0 0 1-2.16 2.15l-2.77-2.14c.18-2.73 1.22-5.37.75-8.16a3.45 3.45 0 0 0-2.3-2.87c-1-.34-2-.2-2.33 1-.78 3.28-4.25 3.94-6 6.29-4.47 2.66-5 8-7.87 11.71a6.55 6.55 0 0 0 2.08 5.76l-.08 1.09-2.89 1.06c0 1.58-1.09 3.12-.19 4.73a.93.93 0 0 0-.17 1c-.46 3.76 1.46 5.8 6.06 5.71 3.57-.06 4.57.89 3.09 4.15l-1.88.08c.64 4.66-1.14 7.41-6 7.73-4.13 2.42-7.78 1.62-11.18-.75-.5-.4-1-.8-1.54-1.19l-3.19-3.79c-1.68 0-3.41 0-3.64 2.23S426 282 428 283c4.09 2.11 3.73 5.13 2.57 8.59l-1.85 2c-2.18 1.48-1.69 3.77-1.8 5.88a6.56 6.56 0 0 0 2.94 2.94A41.45 41.45 0 0 1 435 305a2.25 2.25 0 0 0 2 0c.28.12.55.24.84.34 4.76 1.5 9.84 1.59 14.52 3.66a2.67 2.67 0 0 0 3.95-2.3 2.06 2.06 0 0 0 .58.19c3.12-.46 4.29-2.8 4.61-5.43.34-2.81-1.26-4.88-3.63-6.33a10.62 10.62 0 0 0-7.87-1.55 13.07 13.07 0 0 1-8.92-1.26l-.63-.31c.3-2.09 1.56-3 3.81-2.54 1.15.23 2.25.49 3.21-.44l.06-.12.28.47c3.26 1.64 7.42.45 10.31 3.26 1.91 1 3 3.46 5.59 3.27a.74.74 0 0 0 .4.83c1.22.69 2-.77 3-1.16a2.63 2.63 0 0 1 1-1.51l.64-.34a2.78 2.78 0 0 1 .33-.13l.21-.16c.46-.24.91-.48 1.38-.7a5.51 5.51 0 0 0 1.45-1.58c.57-1.29.34-2.66.42-4-.2-1.36 1.23-2.49.69-3.89 1.6.94 2.79.08 3.77-1.22.73-1 1.51-1.76 2.75-1.61 2.55.31 4-1.26 5.81-2.71 4-3.23 5.25-8.28 8.42-12a26.64 26.64 0 0 0 11.48-4.34 59.2 59.2 0 0 0 6-4.31c1.47-1.46 3.93-1.93 4.58-4.22l.13.18a3.07 3.07 0 0 0 1.33.66 5.43 5.43 0 0 0-3.9 3.16l-.35.54a3.37 3.37 0 0 0 .42 6.73 2.85 2.85 0 0 0 .33-.13c-.45 1.46-1.49 2.88-.62 4.41a163.19 163.19 0 0 0-19.13 4c-3.51 1-6.11 3.16-5.47 6.87.52 3 1.56 6.09 4.5 7.77l-1 .15c-2.07.35-3.59 1.28-4.08 3.46.67 2.95.72 6 1.65 8.9a7.76 7.76 0 0 0 7.94 3.31c4.13-.7 8.07 1.67 12.2 1a7.6 7.6 0 0 1 .58.66l.39.26c.79 3.29 2.83 6.06 3.29 9.75 1.06 8.61 3.47 17-.49 25.49a5.09 5.09 0 0 0-.06 2.88c0 .11.08.21.12.32l-.81.44c.53 1 1.46 2.58 2.29 2.19a6.52 6.52 0 0 1 1.17-.41 6.28 6.28 0 0 0 .71.13c2.17.25 3.43 1.37 3.41 3.68a22.09 22.09 0 0 1-.64 3.14c-1.62-1.36-3.67-1.65-5.79-1.77l-.51.44a2.54 2.54 0 0 0-.14.93 4.8 4.8 0 0 0-1.22 2.13 2.83 2.83 0 0 0-.36-.18 2.42 2.42 0 0 0-1.42.18 4.17 4.17 0 0 0-2 4.67 5.67 5.67 0 0 0 2.54 5.1c1.51.69 1.47 1.57.84 3-1.12 2.58-3.72 3.87-4.93 6.29a19.78 19.78 0 0 0-1.57 10.89c.71 4.57.18 9.8 4 13.57a1.81 1.81 0 0 0 .24.09c-.55 6.07 2 11.46 3.88 17 .65 1.92 1.9 3.4 4.27 3.16l.26-.11c.75 3.55 4.18 2.3 6.48 3.06-1 2.59.53 3.85 3.11 4.56 1.45.14 2.86.17 3.85-1.1h1c1.72-.61 2.33-2.08 2.86-3.63a13.18 13.18 0 0 1 1-2c.67-1.87.67-4 2.17-5.55a4.49 4.49 0 0 0 .45-1.24c.68-4.3 4.47-6.52 6.56-9.86a3.48 3.48 0 0 0 .09-.37s.07 0 .09-.06c2.49-4.48 7-6.62 10.83-9.6.22-.17.22-.59.27-.91a2.74 2.74 0 0 0-.27-1.16 2.18 2.18 0 0 1 .41-.33c1.5.08 3 .62 4.47.48a10.72 10.72 0 0 0 7.51-5c3-4.82 7.42-6.92 12.88-7.84 3.94-.67 8.1-1.25 11.35-4.06a3.65 3.65 0 0 0 .63-1.63c.52-.24.96-.42 1.39-.61zm-70.1-120.69a11.84 11.84 0 0 1 1.16-1c1.43-1.45 2.74-3.11 5-3.09l-.09.19-.27.23c-1 1.92-1.87 3.92-4.25 4.27a2.26 2.26 0 0 0-1.55-.6zM609 310.48l.13-.18v.32zm-115.4-87.32l-.13-.19z" transform="translate(-112.21 -218.11)"/><path class="cls-81" d="M1050.29 688.72v-.08c3.43-1-.79-2.66.28-3.88l-.3-.94-2.76 1c-.43-.37-.87-.72-1.31-1.07-3.45-3.06-3.71-8.2-7.27-11.18-2.24-.63-3.51-2.92-5.83-3.41a6.4 6.4 0 0 1-2-.47c-.4-.23-.82-.43-1.24-.64a12.61 12.61 0 0 1-1.31-1c-.14-4.75-4.15-5.24-7.37-6.61a2.16 2.16 0 0 0-.4.15 3.76 3.76 0 0 0-1.76-2.16 3.1 3.1 0 0 0-2.18-.7c-.84-.15-1.72-.25-2.53-.45-1-.25-2.23-1.32-3.1-.12s.13 2.48 1 3.37a5.08 5.08 0 0 0 .56.48 7.73 7.73 0 0 0 .59 1.39c1.88 3.22 3.7 6.49 7.7 7.53a5 5 0 0 1 .66.06c.06.16.12.32.17.48.29 1.38.2 2.83.8 4.15s1.66 2.16 2.41 3.3c.83 1.42 1.95 2.62 2.86 4l.7 1a21.75 21.75 0 0 1 2.29 5.2 4.28 4.28 0 0 0 .8 1 21.74 21.74 0 0 1 2.37 2.2 8 8 0 0 0 .94.89 21.52 21.52 0 0 1 3.19 3.19 2.32 2.32 0 0 0 2.36.85 11.1 11.1 0 0 0 8.59 2 35.29 35.29 0 0 1 1.09-9.53z" transform="translate(-112.21 -218.11)"/><path class="cls-82" d="M1109.3 623.76l-1.9-1.46c-2.12 2.54 0 2.59 1.69 2.89a3.37 3.37 0 0 0 0 .79c2.09 1.36 1.9 4.2 3.71 5.74l2.24 1.28 1.67.72c1.33 1 2 .44 2.25-1l-.22-1.92c-1.3-.84-2.59-1.62-3.87 0l-.83-.86c-1.04-2.35-1.4-5.42-4.74-6.18z" transform="translate(-112.21 -218.11)"/><path class="cls-83" d="M1063.94 601.58c-2.43-1.78-4.75-1.66-6.87.51a2.81 2.81 0 0 0-.35 3.92c1.58 2 3.48.75 5.27.23z" transform="translate(-112.21 -218.11)"/><path class="cls-84" d="M1106.27 637.65a3.55 3.55 0 0 1 2.19.77l-.08.15c-.41 1-1 1.91-.32 3l1 1.19 2-.3a1.83 1.83 0 0 0 .24-.38l2.76-4.36-.93-1.78c-1.32.53-2.17-.25-3-1.07a2.23 2.23 0 0 0-2.61-1.41c-1.62.38-1 2-1.13 3.12z" transform="translate(-112.21 -218.11)"/><path class="cls-85" d="M1100.2 626.94l2.83 3.78c1.19-3.38.48-4.31-2.83-3.78z" transform="translate(-112.21 -218.11)"/><path class="cls-86" d="M747.51 544.5z" transform="translate(-112.21 -218.11)"/><path class="cls-87" d="M755.32 543.61c-3.09-.92-5.71-2.44-7.81.89 2.42-.35 5.1 1.8 7.81-.89z" transform="translate(-112.21 -218.11)"/><path class="cls-88" d="M723 443.43a2 2 0 0 0 1-2c-.05-.73-.58-1.29-1.26-.88a2.43 2.43 0 0 0-.78 1.6c-.04.61.09 1.31 1.04 1.28z" transform="translate(-112.21 -218.11)"/><path class="cls-89" d="M539.91 694.38a19.67 19.67 0 0 1-7-4.22 20 20 0 0 0-12.38-5c-5.1-.23-10.3-.39-14.61-4.19a10.45 10.45 0 0 0-8.25-2.49c-.92.06-1.81.12-2.36-.78a3.32 3.32 0 0 0-1.54-1 5.71 5.71 0 0 0-.7-.12c-1.37-4.12-3.55-7.88-5.29-11.84-.71-1-1.47-1.95-2.93-1.62l-.09.08v-.05l-.07-.71c-.93-2-3.09-2.77-4.54-4.27-1.25-1.29-2.64-2-4.17-1.18a4.28 4.28 0 0 0-.13-.61c-3.7-3.91-7.19-4.51-11.34-2-2.19-3.11-5.57-5-8-7.87a1.69 1.69 0 0 0-2.14-.08c.43-2.89-2.51-3.28-3.91-4.81-2.1-1.87-4.72-3-6.79-4.91-3.06-1-6.16-.16-9.24-.21-4.23-.07-8.51.18-12-2.87-3.25-1.43-6.37.85-9.58.66a2.23 2.23 0 0 0 1.11-1.52c-.86-4-3.26-3.21-5.83-1.83-1.57 1.51-3.62 2.22-5.45 3.3l-.14.31c-5.11-.46-6.43 4.07-9 6.91-2.09 1.92-3.53-.2-5.14-.89-4.61-2-7.8-1.07-9.7 2.82a2.44 2.44 0 0 0-2.88-.12c-.08.09-.15.18-.22.28l-2.41-.87-1.41-1.77-1.78-1.5c-1.84-4.16.17-8.32 0-12.48 1.78-6.06.55-7.9-5.62-8.82-3.74-.56-7.42-.07-11.11.24l-1.26-.91a6.25 6.25 0 0 0 .9-4.72l1.54-3.88c1.76-.64 1.81-2.21 1.78-3.65a6.41 6.41 0 0 1 3-5.78c.95-1.62.56-2.87-1-3.8-9.17.93-11 1.15-12.64 5.61a9.55 9.55 0 0 0-1.36 2.83c-.05.13-.11.24-.17.36a4.79 4.79 0 0 0-2.4.57c-3.13 1.19-6.77 2.76-9.69 1.81-5.22-1.7-8.34-6-9.53-11.62-.87-4.12 1.2-8.31-.53-12.37l.37-1.71a7.63 7.63 0 0 0 2-3.46 6.44 6.44 0 0 0-.29-3.35l.14-.34a9.55 9.55 0 0 0 .4-1.38c1.43-4.79 6.22-5.22 9.64-7.44.64-.19 1.27-.39 1.93-.54a12.48 12.48 0 0 1 8.48-.11l1.32.38a4.39 4.39 0 0 0 2 .59 3.57 3.57 0 0 0 2-.19c1.27-.46 2.45-1 2.69-2.23l.3-.23c.4-.24.8-.49 1.2-.75 4.48-2.13 8.71-1.39 12.88-.11a3.67 3.67 0 0 0 2.82.92c1 .34 2 .69 3 1 2 .59 2.65 2.7 2.67 4.81a15.5 15.5 0 0 0 3.14 8.95q.46.89.95 1.78a3.32 3.32 0 0 0 .2.37l.14.2c1.33 2.06 2.61 2.2 3.82-.1 1.5-2.47 2.17-5 .46-7.52-.29-2.76-1.08-5.45-1.64-8.17l-.06-.31a16.57 16.57 0 0 1-.14-6.2 10.63 10.63 0 0 1 1.44-2.81 16.11 16.11 0 0 1 2.11-2.48 18.7 18.7 0 0 1 3.65-2l2-.15.31-.82a7 7 0 0 0 1.63-.79c1-.73 2.12-1.39 3.11-2.17a32.65 32.65 0 0 1 4-3.3 2 2 0 0 0 1.73-.58c4-3.23 4.78-5.59 3-9.3a4.92 4.92 0 0 0 2.06-.77c2.68-1.54 4.19-4.13 5.9-6.54 3.47-4.39 7-8.75 12.84-10.06 3.6-1.89 4.17-5.52 5.12-8.93 1.77-3.05 5.22-3.09 8-4.43a14.89 14.89 0 0 1 3.76-1.67c.15-.05.28-.12.42-.19l.07.11a2.88 2.88 0 0 0 .14 1.66c1.58 2.48 3.51 1.93 5.52.62a13 13 0 0 1 2.4-2.51l1.13-.69c1.13-1.36 2.73-1.28 4.25-1.41a3.69 3.69 0 0 0 2.31-1.42c.07-.18.11-.34.16-.51h1.78c.76-1.15 2-1.59 3.14-2.21 1.83-1 2-2.55.82-4.1s-2.24-.44-3.24.4c-.85.72-1.56 1.7-2.92 1.41a8.69 8.69 0 0 1-7.09-6.37c.42-1.22.63-2.55 1.66-3.41 1.66-5.18-.18-7.35-5.74-6.8a3.42 3.42 0 0 0 1.14-1.59 21.13 21.13 0 0 0 6.13.38h.15a15 15 0 0 1 1.18 2.65c1.42-.71 6.8 4.74 4.16-2.45a14.48 14.48 0 0 1 3.17.14c4.42-.79 9.74.2 11.75-5.43h.06c.73 1.59-.37 3.64.92 5.09a8.6 8.6 0 0 0-2.5 4.11 3.15 3.15 0 0 0-2.17-.19 3.34 3.34 0 0 0-1.29.93c-2.6 5.78-1.93 7.1 4.21 7.66a14.45 14.45 0 0 1 4.22.87c-.21.19-.3.52-.13 1.12 2.26 2.1 5.28 1.21 7.87 2l1.09-.09c2 0 4.25-.88 3.49-2.88-1.33-3.51.92-8.86-3.46-10.45-5.28-1.91-5.05-4.28-3.61-8.82 1.62-5.07 4.65-11.06-2.4-15l-1.08-1.91c-.62-1.66-2.13-2.36-3.45-3.31-3.9-2.83-8.61-5.32-5.73-11.57a2.34 2.34 0 0 0-.23-1.88c-2.22-3.6-2.11-7.84-3.29-11.71.06-2.94.06-5.86-2.8-7.74l-1 2.77a10.9 10.9 0 0 0-3 4.95c-2.76 1.31-5 5.46-8.45 3.09-3.6-2.5-3-6.82-2.15-10.75a11 11 0 0 0 .59-2.34c0-.75-.25-2-.67-2.16-4.76-1.47-5.17-6.91-8.75-9.4-2.43-1.61-5.39-.73-8-1.8-4.59-1.87-5.7-.61-6.94 4.14-1.44 5.52 0 12.12-5.75 16.24-1.39 1-1.28 3-.52 4.57 3.61 7.21 2.52 13-3.85 17.24a3 3 0 0 0-1.82-.22c-1.47.6-3.2.81-3.94 2.54a9.08 9.08 0 0 0-.48 1.12l-.24.3c-1.28 3.5-1 7.1-.9 10.69-.08.32-.16.63-.27.94s-.3.9-.45 1.36a6 6 0 0 1-1 2.83 3.55 3.55 0 0 1-3.82.19c.07-.32.11-.65.16-1 .5-2.37-2.15-3.67-2.22-5.84.88.25 1.68.36 1.93-.59.39-1.43-.73-1.62-1.84-1.86.06-.53.13-1.07.19-1.6.15-1.46.65-2.86.94-4.29 1.08-5.34.52-6.29-4.81-7.2-2.5-.43-4.76-1.13-6.38-3.21-3.17-2-5.21-5.4-8.31-7.4-4.44-2.87-10.34-4.28-9.45-11.5a.73.73 0 0 1 0-.22s-.12 0-.28-.18c-2.83-3-1.5-5.89-.16-9 1.24-2.84 3.84-4.33 5.81-6.45 1.73-4.16 5.52-6 9.13-8.06 1.88-1.05 3.94-1.8 2-4.37l.22-.05c.07 0 .14-.14.19-.42a.75.75 0 0 0-.11-.55c5.37-.33 10.69-.87 14.72-5.11a4.53 4.53 0 0 0 1.48-3.39 4.81 4.81 0 0 0 1.81 1.08l-.31.5c-.8 1.59-1.54 3.21-2.43 4.75-1.23 2.11.39 3.43 1.41 4.72 1.29 1.64 2.57.38 3.71-.55 3-2.23 5.85-2.93 8.47.64.42.57 1.41.72 2.14 1.06l1.13.14c3.78.18 3.94-2.45 3-4.77-1.28-3.22-2.48-6.68-5.59-8.7 3-3.24 6.56-5.68 9.92-8.39 2.18-1.76 4.45-4 1.13-6.6 0-.25.09-.49.14-.73 2.72-2.59 5.5-5.14 5.7-9.36.09-1.9 1.58-2.16 3.05-2.33 1.09-.61 2.75-.67 3.17-1.94a4.12 4.12 0 0 0 2.63-2.14 4.59 4.59 0 0 0-.59 2.36 29 29 0 0 0 2 5.09v3.17c-.36 2.91-4.3 2.24-4.9 4.92a.87.87 0 0 0-.2 1.17 2.81 2.81 0 0 0 .39.24c.73 4.09 1.65 4.42 5.24 1.74a2.82 2.82 0 0 1 .18.26 3 3 0 0 0 1.94 0c.4-.18.79-.37 1.2-.53H454l.27.06 1 2-1.96 3.76v.09c-.48.39-1 .8-1.62 1.24a8.64 8.64 0 0 0-1.15.71c-1.15 1.14-2.8 2.22-3 3.72-.58 3.81-2.86 4.68-5.62 4.84a21.26 21.26 0 0 1-2.67-.39c-2.06-.41-3.9-.48-5.27 1.4a3 3 0 0 0-.2 3.63c1.29 2 3.19 1.92 5.21 1.56a12.13 12.13 0 0 1 4.5 0 10.46 10.46 0 0 1 4.94 4.16 7.54 7.54 0 0 1 .26 1 12.17 12.17 0 0 0 2.34 5.27 11.59 11.59 0 0 0 4 3.61c1.67 1.13 3.48 2.12 5.2 3.24 3.26 2.12 4 .52 3.75-2.55.22-.7 0-1.8 1-1.87a7.51 7.51 0 0 0 3.29 2.44c5.08-3.1 6.06-5.89 4.41-11.15-.91-2.89-3.33-5.42-2.81-9.14 2.05 1.14 1.93 3.7 4.12 3.89 1.09.17 2.46 1.22 3.24.25 2.48-3.08 5.69-5.33 8.5-8a1.81 1.81 0 0 0-.22-3c-4.59-2-5.83-7.32-10-9.86-3.38-2.06-4.81-5-.88-8.22 1.13-.92 1.21-2.25 1.25-3.57 1.46-1.59.72-3.14-.07-4.7a4.29 4.29 0 0 0-.57-2.17 3.17 3.17 0 0 0-1.23-2.12l-.39-.29a27.31 27.31 0 0 0-4.51-5.05 7.2 7.2 0 0 1-.32-1.19c-.14-.77-1.07-1.18-1.89-1.34a6 6 0 0 1-.68-.19 22.16 22.16 0 0 1-3.51-4.29c-.09-.34-.18-.7-.26-1.07a11.38 11.38 0 0 0-1.59-4c-.37-3.3 1.07-6.57-.79-9.58l-2.31-.92a2.34 2.34 0 0 0-.31-.55 2.79 2.79 0 0 0-1.28-.52 11.09 11.09 0 0 1-1.74-.1l-5.11-1.77a15.39 15.39 0 0 0-2.65 0 11 11 0 0 0-1.78-.09 7.39 7.39 0 0 0-1.4.18 8.24 8.24 0 0 1-.75.34 4.12 4.12 0 0 1-2.26-2.39 7.08 7.08 0 0 0-.86 0l-2-1.15c0-.28-.05-.55-.1-.83h-2a17.17 17.17 0 0 0-2.58 0 3.33 3.33 0 0 0-2.12 1.07l-1 .83c-2.06 1.61-4.35 3-5.35 5.6a1 1 0 0 0-1.49.33L418 326h-1c-.84 3.25-.44 6.66-1.4 9.92a3 3 0 0 0 1.39 3.75l4.94 4c1 .41 1.53 1.33 2.28 2-2.55 1-1.1 4.11-2.56 5.67-.07 0-.11.16-.12.47a3.2 3.2 0 0 0-2.36.86 11.92 11.92 0 0 1-6.73 6.44 6.47 6.47 0 0 1-.34-2.59c.12-.46.22-.92.31-1.38 2.24-1.69 1.56-4.21 1.59-6.53h-1a12.57 12.57 0 0 1-4.4-2.81 8.23 8.23 0 0 1 0-2c-.38-1.41-.86-2.77.14-4.18s1.13-3-.36-4.33c1.17-3.42 2.16-6.84.58-10.47-.53-1.2.32-2.13.79-3.12v-1.08l2.21-1.57c.38-1.82 1.19-2.79 3.35-2.63 5.35.39 7-4.57 10-7.42.3-.28.22-1.31-.05-1.79-1.79-3.23-8.86-4.27-11.67-1.78a17.63 17.63 0 0 0-4.35 5.85c-4.54 2.55-2.37-1.73-3.1-3l2.09-3.83.88-.9-1.93-2.93-2.92.84-6.68.19-.1 1.86-.17 1-1.63.18a3.3 3.3 0 0 0 .73 2.7c-.41 1.45.33 4.26-2.71 2.82-1.42-.67-2.48-2.51-4-.54a4 4 0 0 0-.08 5c2.2 3 2.86 6.46 3.86 9.84l-.06.06a1.44 1.44 0 0 0 .1 1.5c3.43 1 2.8 3.36 1.91 5.8-2.61.82-.71 5.35-4 5.24-3-.1-4.35 1.62-5.79 3.61l-1.91.18-1.06 1.8h-1.88c-.95.33-1.51.86-1 1.94 3.72 1.41 1.64 3.74.94 5.86l-2 1.13h-5.15a21.26 21.26 0 0 1-2.61-1.19c-.27-3.48-1.94-5.07-5.91-5.67 0-.07 0-.14-.06-.21h.06a15.61 15.61 0 0 0 2.53-1.69 2.46 2.46 0 0 0 .13-.23c.2.16.41.32.61.5 3.21-.36 7.81 1.94 8-4.19a5.43 5.43 0 0 0-1.26-1.63c.54 0 1.08.05 1.62 0 5.39-.16 6.4-1.64 4.26-6.62-1.3-3-2.39-6.22-4.51-8.83a2.61 2.61 0 0 0 1.3-.05 3 3 0 0 0 1.09-.94c1.28-6.87 3.63-13.09 10.17-16.76a2.8 2.8 0 0 0-.42-3.51l-.1.06-2.75-1.17c-1-.71-2.49-1.3-3.08-.48-1.79 2.52-4.31 3.21-7 3.8-.36.08-.53 1.09-.78 1.67l-2 5c-1.93-.52-1.76-2.59-2.78-3.79-2.22-1-3.12 2.11-5.16 1.69l-1-1.9c.34-2.82-.9-4.38-3.73-4.69l-1.28-1.16a3.52 3.52 0 0 0-.91-3c0-3.17 1.1-6.44-.83-9.44-2.1-1.69-5.74-.79-6.89-4.09v-.06c-3.7-2.86-10.54-3.11-11.7-.09-2.32 6.06-7.82 9.19-11.7 13.79a9 9 0 0 0-1.31 2c-.83 2.68-1 5.89.63 7.8s4.89.93 7.25.16c2.11-.69 2.57-3.75 5.05-4.29 1.25.18 2.6.27 2.19 2.15-1.93 1-2 2.8-1.83 4.67a3.68 3.68 0 0 1 .77.31l-.9 2.78-.86.78-.37-.31c-3.46 1.36-3.6 2.2-.88 5.45l1 1c.92.31 2.22.05 2.44 1.56-1.4.69-3.2 0-4.29 1.46-3.07 1.11-1.77 3.7-2 5.78l1-.07c1 1.21 1.82 2.56 3.49 3 2.15.52 2.49 2.1 2.28 4-1.44 1.61-.81 3.23 0 4.85a3.53 3.53 0 0 0 2.49.43 12.17 12.17 0 0 0 7.62.69l.85-.22c1.34.38 2.36 1.31 2.66 3.49l-.61.22a4.1 4.1 0 0 0-2.49 2.48 1.47 1.47 0 0 0-.2.39 9.49 9.49 0 0 1-1.43-1 5.19 5.19 0 0 0-1.63-2.57c-1.79-1.16-3.68-.74-5.65-.63-2.36.13-5.09.26-5.46-3.23 2.28-3.21.82-5.12-2.29-6.35-1.51-.6-3.09-1-4.64-1.53-2.14-2.44-5.36-3.8-6.85-6.87-.56-2.46-2.49-4.28-4.51-3.12-4.2 2.41-3.7-1-4.14-3.09a5.8 5.8 0 0 0-3.94 3.12l-2.39-1.6c.29-1.72.73-3.42.86-5.15.22-3.1-1.41-1.42-2.56-.9-1.62.39-3.23 1.09-4.87.09a4 4 0 0 0-.24-.8c-3.9-2.72-7.39.58-11.09.75-1.31.06-3 2.14-3.66-.83l.35-.25c-2.68-2.64-5.29 0-7.93.11a4.27 4.27 0 0 1-3 .92c-1.48-1.28-1.86-3.06-2.15-4.87l-.71-2c-2.06-.84-4.24-1.45-5.88-3.08l-1 .35c-3.25-5.31-9.63-5.76-14.16-9.08-2.06-1.37-2.4-4.78-5.63-4.76-1.06-.3-2.83-.23-2.91-1.34-.34-5.39-5.75-7.2-7.68-11.41-1.06-1.28-2.27-.85-3.53-.37-5.11 1.94-10.67 1.05-16 3.35-3.8 1.63-7.72 2.71-10.85 5.58-3.62 2.59-7.11 5-12.12 3.34-2.68-.88-6.23 3.08-5.23 6 1.48 4.34.93 8.66 1.14 13 .76 2.35.4 5.12 2.56 7-4.26 3-8.88 2.88-8.67-.19.42-6.34-3.33-3.57-5.74-3-3.25.78-6.36 2.12-9.53 3.23l-1.59.36a3.69 3.69 0 0 0 .7 1.9 2.51 2.51 0 0 0 0 .56c.54 1.72-.27 3.07-1 4.55-1.36 2.61-1.33 5 1.86 6.38 1.87.51 3.88 0 5.7.84a6.23 6.23 0 0 0 1.39.43 5.55 5.55 0 0 0 1 .12l.94.59.93-.73 1.53-.24a2.35 2.35 0 0 0 1.21-1.47c.85-.08 1.82-.34 2.21.46.89 1.8-4.43 10.16-6.54 10-2.5-.19-4.69 1.06-7.1.9-1.66.27-3.21-1.57-4.92-.23l-1.71.47-.94 3.47c-4.63 3-10.68 5.05-8.43 12.69.19.64-.45 1.52-.7 2.28-2.62 6.25 2.2 7.33 6.23 9l-1.23 2.9c-1.7 1.17-.53 3.59-2.11 4.81.66 1.77 2.5 1.05 3.5 1.64 2.71 1.6 8.27.18 7.3 6.14-2 2.88-4.15 5.6-7.48 7.07l-1.4 1.68a8.17 8.17 0 0 0-3.91 2 5.22 5.22 0 0 0-4.23 4.09c-1.81-.57-3.83-1.69-5.44-.16-3.27 3.11-7.32 4.17-11.49 5.1-.68.79-1.25 1.72 0 2.34 1.57.76 2.77-.11 3.77-1.29 2.22-1.84 5.48-1 7.65-2.93l3.11-.9a5 5 0 0 0 3.6-1.16l6-1.13c1.73-3.24 5.68-3.29 8.06-5.6 2.2-.11 2.91-2.46 4.73-3.14l2.89.89c-1 1.29-1.27 2.7 0 3.9s2.51.33 3.6-.21c2.15-1.08 4.19-2.38 6.27-3.59-.83-2.85-3-2.16-5-1.95a2.37 2.37 0 0 1-1.08-.61l.18-.07c1.72-1.2 4.05-2 3.43-4.73l.26-.28c3.56 0 4.15-1 3.51-6.07l.31-.15c1.89 1.1 3.73.58 5.57-.4a3.64 3.64 0 0 0 .73-1h.09a5.66 5.66 0 0 0-.28 1.19 3.58 3.58 0 0 0 .81 2.33 4 4 0 0 0-2.74 1.83c2 1.21 3.55.54 5.1-.31a7.51 7.51 0 0 0 2.75.64 7 7 0 0 0 3.85-1.19c1.71-1.5 4.3-1.65 5.76-3.52 1.11.78 3.1.37 3.71 1.82 3.24 3.09 6.43 6.22 11.23 6.78 1 .11 1.58 1 2.21 1.75a5 5 0 0 0 .84 1c2 1.65 4 3.32 4 6.23 1.79 3.06 1.54 7.41 5.7 9a3.45 3.45 0 0 0 .39-.09l.73 1.46q0 1.6.07 3.2c-.33 1.51-.77 3 .07 4.52a11 11 0 0 1 1.81 7 .64.64 0 0 0 .53.26 1.35 1.35 0 0 0 .44.79c1.06.29.65 3 2.45 2.05a2.67 2.67 0 0 0 .38.34 4.12 4.12 0 0 0 .93.27c-.29 1.91 1 2.67 2.88 3a1.93 1.93 0 0 0-.62.29c-1.73 2-2.38 3.88-.14 5.76-.48 4.78 1.93 9.23 1.7 14a1.67 1.67 0 0 0 .92 1.48h-.14a2.51 2.51 0 0 0-1.34 1.8 2.51 2.51 0 0 0-.82 0c-2.7 1.8-2 4.11-.83 6.35a53.44 53.44 0 0 1 3 5.51 4.74 4.74 0 0 0 .73 1.26c4 3.75 1.69 8.43 1.81 12.73 0 1.28-.76 2.66-.17 3.83a7.1 7.1 0 0 0-.39.99c-2.39 7.72-5.77 15.13-7.13 23.16-2.81 5.22-1 10.32.4 15.43a6.59 6.59 0 0 1 1.93 2.41l.81 3.73c.08 1.44 0 2.92.2 4.34l.33 1a3.15 3.15 0 0 0-.07.42c1.06 4.32 2.05 8.51 7.06 10.33 2.47.9 4.91 2.52 5 5.78a16.29 16.29 0 0 1 1.63 3c1.43 3.89 2 8.13 4.4 11.63 1.78 2.55 5 4.85 1.28 8.3a1.12 1.12 0 0 0 .34 1.71c5.25 2.15 6.92 6.69 8.07 11.66.12.5 1 .84 1.46 1.25.86 1 1.67 2 2.58 2.89s1.14 3 2.74 1.82c1.34-1 .24-2.63-.71-3.3-2.06-1.46-2.34-3.76-3.33-5.73-.79-6.35-4.36-11.55-7.39-16.88a17 17 0 0 1-2.41-7.81l1-.89a3.28 3.28 0 0 1 3.13-.4 4.69 4.69 0 0 1 1.36 2.29 9.55 9.55 0 0 0 .4 2.44c0 .53.06 1.07.08 1.61l.31.41a4.15 4.15 0 0 1-.06 1.15c-.1 3.21 1.89 5.31 3.7 7.66 2.1 2.73 6.49 4.2 5.31 9-.19.78.81 1.35 1.49 1.77 3.11 1.9 5 5 7.13 7.72 2.7 3.38 4.36 7.06 2.89 11.71a5.53 5.53 0 0 0 2.65 6.29c4.75 3 9.43 6.2 14.75 8.2a7.2 7.2 0 0 1 4.77 2.1c3.71.59 7 2.84 10.86 2.79 3.45-.06 7-1.12 9.73 2.4 3.23 4.1 7.9 6 12.9 7.25 4.08 1 8.22 2.23 10.57 6.29a1 1 0 0 0 1.17 0l1.85 1.57c.19 1.56-.47 3.56 2 4l2.87 1.27c2.52 1.64 3.25 6.25 7.72 4.64l1.8.47 1.42 2.63c1.41-.76 4.4 2.64 4.45-1.7l1.18-1.2a5.6 5.6 0 0 1 4.91.93c3.05 4.15 4.83 8.61 3.47 13.86 1.82 2.85-.25 4.46-2.1 5.88s-3.18 2.58-3.34 4.86a12.49 12.49 0 0 0-5.9 15v3.63c-3 3.14-3.51 8.61-.45 10.52 3.37 2.1 4.86 5.51 7.37 8.16.81 1.94 1.3 4.13 2.5 5.79 5.3 7.34 6.94 17.53 16.41 21.61 4.42 1.91 8 4.88 11.64 7.91 1.79 2.29 2.12 5 2.2 7.77.24 8.19.51 16.38.78 24.57v1.79c-1.89 6.57-1.9 13.22-1.15 20 .5 4.56 1.81 9.22-.86 13.6-.13 3.68-1.3 7.13-2.19 10.66-1.07.75-.76 1.85-.74 2.88a7 7 0 0 0 .86.05c2.63 5.07.48 10.45 1.05 15.66l1 .34-1.8 4.49c1.27 1 .06 3.77 2.68 3.86.46-2.34-.5-4.89.92-7.08h.11a1.49 1.49 0 0 0 1.06-.34c-1.37 3 0 6.37-.55 9.49.1 1.37-.36 2.69-.25 4.06-1.07 1.21 2.49.36.83 1.82-.74.91-1.31 2-2.52 2.44a4.33 4.33 0 0 0-2.18 1.48 7.36 7.36 0 0 0-.69 2.79 4.37 4.37 0 0 0 .3 1.44c.74 1.94 3.9 1.15 4.11 3.67l1.07 1.86-.32 1.07.27 1v3l-.13 3 3 .88a7.24 7.24 0 0 0 .87 4.64l.94 1.21 1.14 3.94c.85 2.68 2.29 1.69 3.75.6l1.4 1.37a2.47 2.47 0 0 0-.42.84c-3.44 2.69-2.65 4.47 3.08 7l1.13 1.89 2.81.07.89-1.94h.13c.78 1.33 1.44 2.8 3.22 3a2.59 2.59 0 0 0-.13 1.49c-1.73-1.1-3-.34-4 1.43 1.91 3.44 6.22 2.37 8.83 4.63.59.51 2.46.21 1.6-1.71 2.08.46 3.61-1.32 5.56-1.37 1.24 0 2.4-.53 2.5-1.82s-1.25-1.36-2.06-1.7a21.17 21.17 0 0 1-6.62-4 8 8 0 0 0-2-3.86l-2-2.11a1.54 1.54 0 0 0-.07-.64 1.86 1.86 0 0 1 .9-.25v-.92c-.22-1.16-1.11-1.63-2.08-2h-.25c-2.8-6.41 1.88-11.12 4.59-16.09 1.9-3.47 3.26-5.71-1.58-7.92-4.6-2.1-4.56-5.22-.55-8.32 1.5-1.26 3-2.64 2.78-4.79-.32-3.07 1.2-5.6 2-8.34.62.41 1.13 1.26 2 .85a1 1 0 0 0 .32-1.57c-.85-1.15-2-.53-3-.34l-2-.78c1.14-1.62-3-6.34 2.51-5.12 4.92 1.1 6.41-.41 6-5-.29-3.51.55-5.18 4.84-4.84 5.82.47 10.39-2.55 11.72-6.81 1.24-4-1.8-6.91-2.94-10.3 3.49-1.38 7.38 1.53 10.75-1l1.38-1.81 3.67-4.31a1.37 1.37 0 0 0 .45-.45 3.76 3.76 0 0 0 .52-3.09l.2-.34 1.86-2.48h1c.94-.88 2-1.71 2-3.15a6 6 0 0 0 2.88-4.8l4.72-8c1.58-3.41-.06-7.81 3.28-10.67.9-.88 1.8-1.77 2.72-2.63h.08l1-.3c1.28.12 2.54-.3 3.81-.22a7.19 7.19 0 0 0 3.53-1.73c1.06-.7 1.84-1.85 3.19-2.1.44-.11.9-.2 1.35-.27 2.38-.25 4.69-.59 5-3.3.23-.17.45-.35.67-.53a2.57 2.57 0 0 0 3.09-1.72c.91-3.48 3.43-6.14 4.53-9.5 1.57-5.1 2.77-10.25 2.31-15.65-1-3.74-.78-7.07 2.86-9.38 1-.64 1.36-1.79 2-2.7.9-1.25 1.48-2.69 2.38-3.93 1.22-1.12 2.38-2.29 2.63-4a2.61 2.61 0 0 0-.85-1.94c4.3-1.79 3.13-5.71 3.08-9s-1.46-6.97-4.98-8.05zM306.33 347.71a1.3 1.3 0 0 0 .86-.2h.62c.86.81 2.86-.21 3 1.81a4.24 4.24 0 0 0 2.32 3.39 13.12 13.12 0 0 0 2.79.39 1.18 1.18 0 0 1 0 .18 4.73 4.73 0 0 1-2.8.24 4.3 4.3 0 0 0-3.62.92 6.46 6.46 0 0 0-.85 1.06c-1.41 0-2.82.08-4.23.15-1 0-2 1.29-3 1l.26-.22a6.18 6.18 0 0 0 2-2.71 6.77 6.77 0 0 1 .2-.75 2.29 2.29 0 0 0 1.49-2c.06-.8-.48-1.12-1.12-1.27a3.18 3.18 0 0 0-.75-1l-.19-.14a1.77 1.77 0 0 1 .13-.44 8 8 0 0 0 2.89-.41zm75 131.24c-1.65 3.36-4 4.26-7.36 1.74-1.32-1-3-.81-4.34-.83 2.54-2.16 6.26-2.16 9-4.28-.42 2.13.27 3.42 2.71 3.36zm-54.5-50h-.35v-.3zm-5.94-41.73a7 7 0 0 0-1.18.79 5.64 5.64 0 0 0-.72.81 7 7 0 0 0-1.95.51 13.52 13.52 0 0 0-1.86-.43c-1.84.57-3.79.84-5.58 1.54 2.28-1.83 4.71-3.43 7.85-3.83a12.51 12.51 0 0 0 2.73-.18 1.65 1.65 0 0 1 .71.76zm52.89 107.43a7.17 7.17 0 0 0-.25 1.06c-.51.35-.62 1.17-.83 1.89 0 .05-.17-.06-.19 0 .65-1.32.89-3.07 2-4a6.32 6.32 0 0 0-.72 1.02zm-15.57-56.87v-.07l.16.1zm30.89 58.56c-1-3.05-.17-3.69 3.74-4a4.05 4.05 0 0 1 .28.5c-2.8.51-3.94 1.42-4 3.47zm-86.63 90a.89.89 0 0 1 .13.64 4.58 4.58 0 0 1-.12-.66zm144.27-240.65v.11a4.71 4.71 0 0 0-.38.42zm28.86 4.26a1.08 1.08 0 0 1 .2-.39zm-82-.37a3.33 3.33 0 0 1-.53.51c-.39.37-.79.74-1.2 1.1-.39-.26-.61-.78-.48-1.81l.51-.38a2.54 2.54 0 0 0 1.73.57zm-44.53-48.86l.06-.17h.23zM233.79 407.55a1.19 1.19 0 0 1 .38.73zm204.9 488.35v-.06h.05zm31.06-132.77l.21.06h-.31zm.23.08v.06l-.29.17c.11-.07.2-.15.31-.23zm-59.83-126.49zM421 721.07c.08.12.14.24.21.36l-.19.12z" transform="translate(-112.21 -218.11)"/><path class="cls-90" d="M1023.68 682.79c.17 1.09 1.09 1.35 2 1.65a1.7 1.7 0 0 1 .06-.66l-1.53-1.55c-.21.19-.55.4-.53.56z" transform="translate(-112.21 -218.11)"/><path class="cls-91" d="M1099.21 578.46c-1.38-.58-2 .51-2.71 1.44-3 4.24-2.54 7.72 1.71 12.57.67-3.83 1.38-7.66 2-11.51a2.1 2.1 0 0 0-1-2.5z" transform="translate(-112.21 -218.11)"/><path class="cls-92" d="M613.13 405.46c3.86-.22 6.52-2.81 9.39-4.88 2.06-1.48 2.89-3.64 1.53-6s-2.76-5.56-6.44-5a84.78 84.78 0 0 0-8.46 2.09c-2.68.32-5.47 2.23-7.74-1.29-.8-1.24-2.71-.62-4 .35-.38.48-1.14 1.32-1.07 1.4 1.82 2 1.57 4.35 1.83 6.86.31 3 .75 7.48 6.07 6.49a7.12 7.12 0 0 0 8.89-.02z" transform="translate(-112.21 -218.11)"/><path class="cls-93" d="M233.86 428.56c-1.88 2.28-1.06 4.67-.09 7.71 2-2.61 3.33-4.7 2.2-7.42a1.32 1.32 0 0 0-2.11-.29z" transform="translate(-112.21 -218.11)"/><path class="cls-94" d="M410.13 437.74l1 1c1.37-.41 3-.47 3.42-2.25a1.16 1.16 0 0 0-1-1.39c-2.12-.37-2.97.9-3.42 2.64z" transform="translate(-112.21 -218.11)"/><path class="cls-95" d="M409.11 609.43a1.1 1.1 0 0 0 .43.22 5.83 5.83 0 0 0 5.42.25 17 17 0 0 1 8.91-1.37l.88-1.18-4.77-3c-2.72-2.26-6-1.56-9.06-1.59-.9-.33-1.91-.73-2.61.17-.49.62.18 1.13.67 1.54a4.47 4.47 0 0 0 .24.83l-.24 2.91a17 17 0 0 0-6.47-.64 2.35 2.35 0 0 1-.08.61c1.97 1.82 4.43.91 6.68 1.25z" transform="translate(-112.21 -218.11)"/><path class="cls-96" d="M420.54 401.61c0 .33.61.93.87.9 2-.26 2.24-1.88 2.45-3.47v-.47c-1.96.08-3.42.77-3.32 3.04z" transform="translate(-112.21 -218.11)"/><path class="cls-97" d="M319.46 177.41v.01-.01z"/><path class="cls-98" d="M430.13 393.13a.83.83 0 0 0-.63.52c-.13 1.57 1.17 1.56 2.16 1.88-.17-1.02.07-2.32-1.53-2.4z" transform="translate(-112.21 -218.11)"/><path class="cls-99" d="M465 408.35l1 2c2-1 2.35-2 0-3z" transform="translate(-112.21 -218.11)"/><path class="cls-100" d="M433.38 392.77c-.06.23.5.9.76.89 1.19-.06 1.28-1.09 1.49-2-.88.13-1.96-.06-2.25 1.11z" transform="translate(-112.21 -218.11)"/><path class="cls-101" d="M443.62 352.23c-1.66-.49-2.71.77-4 1.23a2.51 2.51 0 0 0 1.91 2c.97-.89 2.64-1.33 2.09-3.23z" transform="translate(-112.21 -218.11)"/><path class="cls-102" d="M956.53 642.84c-2.7.78-1.9 3.35-2.35 5.44.8 2.44-.35 6.24 3.65 6.77 2.41.32 3.67-1.77 3.89-4.09s-3.72-8.55-5.19-8.12z" transform="translate(-112.21 -218.11)"/><path class="cls-103" d="M399.26 602.88c1.18-.32 3-.06 3.29-1.57s-1.52-1.84-2.36-2.73l-1.79-1.11-4.88-1c-1.35-.74-2.7-2.29-4.09 0l-.69 2c3.48 1.53 5.9 5.67 10.52 4.41z" transform="translate(-112.21 -218.11)"/><path class="cls-104" d="M416.9 394.73c-3-.19-6-.26-6.65 3.72 3.08.3 5.91.15 6.65-3.72z" transform="translate(-112.21 -218.11)"/><path class="cls-105" d="M373.78 590.53a6 6 0 0 0-4.76 1.65c-1.12 1.18-.68 1.93.77 2.3l4-2.65c4.66 1.38 9 4.38 15.14 2.74l-3.4-2.82c-3.88-.87-7.62-2.89-11.75-1.22z" transform="translate(-112.21 -218.11)"/><path class="cls-106" d="M390.38 609.49c-.06.93.69 1.38 1.55 1.42s1.67-.22 1.78-1.17-.67-1.29-1.53-1.37c-.79.09-1.73.09-1.8 1.12z" transform="translate(-112.21 -218.11)"/><path class="cls-107" d="M827.58 735.43c-3.39.67-4.93 3.39-4.6 6.94-.84 1.26-.32 1.89 1 2.14.21 3.34-.22 6.58-2.38 9.23-3.1 3.82-2.1 8.09-1.28 12.15.68 3.33 3.38 4.71 6.74 4a44.17 44.17 0 0 0 5.51-2l8.43-23.34h2.34l.24-1-1.06-1.86a51.06 51.06 0 0 1 1.84-7c1.91-4.62 1.68-8.77-1.79-12.54-3.93 5.59-7.27 11.75-14.99 13.28z" transform="translate(-112.21 -218.11)"/><path class="cls-108" d="M693.53 523.92c.16 1.4 0 3.24 2 3.21 1.68 0 1.74-1.65 1.84-2.93a9.46 9.46 0 0 0-1.12-6.08 9.83 9.83 0 0 0 .61-1.29c.52-1.69 1.1-3.45-.48-4.86a1.4 1.4 0 0 0-2.09.39 3.85 3.85 0 0 0 .45 5.19 5.79 5.79 0 0 0 .74.59 7.34 7.34 0 0 0-1.95 5.78z" transform="translate(-112.21 -218.11)"/><path class="cls-109" d="M447.1 638.69l2.29 1.07v-3l-1-.08c-1.65-.11-1.61.86-1.29 2.01z" transform="translate(-112.21 -218.11)"/><path class="cls-110" d="M428.69 609.46c-.28 1.15.92 1.52 1.87 1.63 1.27.14 2.56.13 3.25-1.23.06-1.44-1-1.54-1.91-1.54-1.19-.01-2.81-.52-3.21 1.14z" transform="translate(-112.21 -218.11)"/></svg>